<svg width="51" height="67" viewBox="0 0 51 67" fill="none" xmlns="http://www.w3.org/2000/svg">
<path d="M25.231 66.925C1.07397 58.424 0.375977 34.718 0.375977 32.043V2.22705L1.28297 2.67405C4.27897 4.14905 7.44697 4.89705 10.7 4.89705C15.496 4.89705 20.326 3.32405 25.095 0.221047L25.438 -0.00195312L25.781 0.221047C30.553 3.32405 35.385 4.89705 40.141 4.89705C43.422 4.89705 46.605 4.14905 49.598 2.67405L50.506 2.22705V32.043C50.506 34.718 49.809 58.424 25.65 66.925L25.441 66.999L25.231 66.925Z" fill="white"/>
<path d="M49.8761 32.042V3.23905C47.3281 4.49405 44.0411 5.52605 40.1411 5.52605C35.2601 5.52605 30.3231 3.92405 25.4381 0.748047C20.5571 3.92405 15.6211 5.52605 10.7391 5.52605C6.84007 5.53305 3.55508 4.49405 1.00708 3.23905V32.043C1.00708 38.914 4.01808 58.793 25.4421 66.333C46.8651 58.792 49.8761 38.913 49.8761 32.042Z" fill="#092360"/>
<path d="M15.384 32.848C15.656 32.848 15.887 32.886 16.093 32.84C16.893 32.654 17.592 32.293 18.027 31.559C18.205 31.254 18.355 30.925 18.527 30.619C18.675 30.351 18.815 30.071 19 29.837C19.503 29.202 20.349 29.125 20.956 29.648C21.159 29.821 21.32 30.044 21.475 30.266C21.773 30.698 22.037 31.156 22.338 31.586C22.499 31.816 22.689 32.027 22.891 32.225C23.244 32.569 23.669 32.781 24.163 32.824C24.538 32.859 24.914 32.86 25.31 32.879C25.31 32.754 25.325 32.675 25.31 32.598C24.85 30.19 24.831 29.342 24.347 26.944C24.129 25.858 24.307 24.878 24.91 23.962C25.089 23.692 25.284 23.433 25.506 23.181C25.211 24.427 25.49 25.628 25.717 26.83C26.171 29.199 26.208 30.007 26.661 32.379C26.686 32.523 26.723 32.663 26.75 32.799C27.023 32.884 27.915 32.899 28.396 32.824C28.436 32.666 28.48 32.493 28.519 32.319C28.694 31.575 28.886 30.844 29.234 30.162C29.376 29.888 29.528 29.62 29.715 29.381C30.475 28.401 31.671 28.098 32.809 28.596C33.1 28.721 33.381 28.88 33.642 29.063C34.741 29.82 35.97 30.126 37.285 30.154C37.684 30.162 38.093 30.145 38.497 30.139C38.579 30.139 38.66 30.139 38.794 30.139C38.691 30.307 38.61 30.441 38.524 30.566C38.273 30.946 38.012 31.317 37.772 31.703C37.669 31.872 37.549 31.926 37.35 31.911C37.04 31.892 36.721 31.907 36.411 31.907C36.388 32.509 36.599 32.816 37.114 32.875C37.927 32.969 38.723 32.92 39.497 32.602C39.954 32.416 40.325 32.127 40.595 31.715C40.78 31.431 40.935 31.125 41.116 30.834C41.281 30.56 41.431 30.275 41.631 30.032C42.159 29.379 43.02 29.324 43.642 29.889C43.768 30.007 43.878 30.143 43.973 30.284C44.454 30.967 44.869 31.692 45.182 32.464C45.559 33.404 45.559 34.33 45.035 35.222C44.909 35.432 44.796 35.645 44.677 35.853C44.643 35.848 44.61 35.857 44.603 35.845C44.354 35.427 43.962 35.208 43.525 35.072C43.091 34.939 42.651 34.835 42.218 34.698C41.929 34.607 41.645 34.49 41.36 34.371C40.955 34.198 40.746 33.863 40.675 33.436C40.66 33.318 40.645 33.197 40.622 33.022C40.543 33.117 40.482 33.167 40.447 33.234C39.945 34.151 39.174 34.619 38.124 34.668C37.645 34.691 37.17 34.704 36.707 34.565C36.11 34.394 35.849 34.053 35.885 33.428C35.907 33.102 35.999 32.781 36.067 32.459C36.103 32.293 36.159 32.127 36.208 31.952C35.914 31.884 35.657 31.973 35.395 32.02C34.519 32.176 33.707 32.522 32.909 32.905C31.87 33.396 30.833 33.9 29.723 34.225C29.408 34.321 29.088 34.421 28.764 34.476C28.514 34.516 28.407 34.643 28.373 34.873C28.327 35.203 28.263 35.526 28.211 35.852C28.19 35.958 28.161 36.06 28.122 36.239C27.952 35.675 28.038 35.182 28.06 34.655C27.738 34.655 27.444 34.655 27.1 34.655C27.995 39.802 29.062 44.899 29.977 49.632C30.093 49.56 30.185 49.523 30.246 49.458C30.747 48.97 31.27 48.503 31.725 47.979C32.445 47.141 32.545 45.837 32.006 44.876C31.822 44.544 31.604 44.233 31.41 43.908C31.249 43.632 31.086 43.356 30.945 43.07C30.491 42.113 30.546 41.17 31.086 40.262C31.202 40.064 31.34 39.88 31.467 39.683C31.494 39.692 31.515 39.698 31.543 39.699C31.543 39.84 31.537 39.979 31.546 40.118C31.585 40.614 31.755 41.072 31.997 41.506C32.227 41.925 32.469 42.337 32.701 42.752C33.502 44.196 33.459 45.662 32.745 47.114C32.107 48.406 31.335 49.613 30.276 50.613C30.154 50.729 30.098 50.859 30.096 51.03C30.074 51.906 29.812 52.718 29.353 53.464C29.126 53.836 28.893 54.205 28.633 54.567C28.808 53.71 28.936 52.863 28.875 51.921C28.727 52.026 28.619 52.095 28.517 52.171C27.795 52.712 27.032 53.166 26.195 53.501C25.34 53.847 24.466 53.908 23.561 53.787C21.4 53.505 18.939 52.882 16.897 52.14C14.52 51.272 11.462 49.663 9.97096 48.418C10.106 48.472 15.816 51.777 23.972 51.777C25.505 51.679 26.973 51.339 28.359 50.663C28.451 50.621 28.538 50.572 28.62 50.526C28.654 50.507 28.676 50.48 28.739 50.428C27.816 45.55 26.869 40.632 25.707 34.645C25.563 34.637 25.444 34.626 25.324 34.624C25.092 34.619 24.861 34.621 24.626 34.617C24.039 34.596 23.481 34.475 23.01 34.097C22.973 34.069 22.927 34.053 22.912 34.044C22.694 34.569 22.481 35.083 22.246 35.645C22.148 35.535 22.09 35.477 22.038 35.417C21.842 35.17 21.581 35.005 21.283 34.917C20.814 34.782 20.33 34.684 19.863 34.546C19.498 34.441 19.143 34.319 18.788 34.177C18.41 34.033 18.235 33.715 18.149 33.337C18.122 33.206 18.097 33.076 18.058 32.878C17.965 33.029 17.91 33.133 17.842 33.222C17.613 33.509 17.405 33.818 17.146 34.071C16.754 34.455 16.249 34.603 15.702 34.617C15.433 34.619 15.16 34.624 14.893 34.613C14.711 34.608 14.604 34.676 14.5 34.823C14.261 35.176 13.99 35.509 13.638 35.798C13.583 35.727 13.541 35.671 13.503 35.614C13.074 34.937 12.451 34.613 11.654 34.617C10.562 34.619 9.47097 34.617 8.38197 34.617C7.91297 34.617 7.44997 34.629 6.98497 34.608C6.73097 34.597 6.46897 34.558 6.23097 34.482C5.70097 34.306 5.44496 33.932 5.42996 33.373C5.42096 32.896 5.63497 32.152 5.95997 31.606C5.99397 31.663 6.02497 31.705 6.04597 31.754C6.29797 32.371 6.78297 32.688 7.40997 32.796C7.72297 32.853 8.04497 32.877 8.35997 32.881C9.91997 32.883 11.477 32.873 13.031 32.877C13.257 32.877 13.503 32.877 13.72 32.944C13.968 33.023 14.193 33.173 14.445 33.296C14.447 33.271 14.475 33.198 14.465 33.126C14.411 32.626 14.239 32.173 13.908 31.792C13.57 31.41 13.141 31.245 12.633 31.249C10.955 31.255 9.27798 31.257 7.59798 31.245C7.27298 31.241 6.93597 31.199 6.62297 31.105C5.82797 30.866 5.39597 30.232 5.43797 29.411C5.46197 28.852 5.65096 28.34 5.98396 27.829C6.00896 27.966 6.04197 28.046 6.04797 28.131C6.13497 28.853 6.63697 29.453 7.65797 29.486C8.35397 29.508 9.05497 29.49 9.75297 29.49C10.871 29.49 11.985 29.486 13.101 29.493C13.306 29.493 13.518 29.501 13.72 29.539C14.766 29.751 15.434 30.54 15.475 31.605C15.483 31.847 15.456 32.094 15.434 32.336C15.427 32.497 15.405 32.654 15.384 32.848ZM28.905 32.705C29.697 32.781 33.042 31.741 33.579 31.261C32.8 30.835 31.993 30.487 31.111 30.372C30.461 30.289 29.927 30.513 29.553 31.06C29.216 31.551 29.038 32.104 28.905 32.705ZM22.134 33.16C21.614 32.588 21.145 32.056 20.658 31.545C20.516 31.401 20.326 31.298 20.14 31.205C19.891 31.076 19.62 31.08 19.361 31.201C19.069 31.342 18.827 31.534 18.656 31.81C18.735 32.046 18.883 32.211 19.088 32.301C19.34 32.417 19.603 32.526 19.876 32.594C20.593 32.786 21.316 32.958 22.134 33.16ZM44.348 33.25C44.001 32.761 43.697 32.281 43.345 31.85C42.706 31.072 42.111 31.054 41.394 31.761C41.34 31.817 41.29 31.888 41.248 31.949C41.312 32.226 41.486 32.392 41.717 32.501C41.901 32.591 42.1 32.663 42.3 32.717C42.955 32.897 43.614 33.062 44.348 33.25ZM26.449 20.294C26.145 20.773 25.857 21.238 25.548 21.733C25.444 21.617 25.373 21.552 25.319 21.479C24.987 21.058 24.555 20.822 24.025 20.805C23.485 20.781 22.946 20.797 22.409 20.788C22.247 20.785 22.167 20.868 22.088 20.986C21.879 21.303 21.658 21.609 21.419 21.942C21.36 21.865 21.32 21.824 21.29 21.772C20.966 21.148 20.416 20.872 19.745 20.805C19.549 20.788 19.352 20.793 19.156 20.793C17.573 20.79 15.992 20.796 14.413 20.789C14.105 20.786 13.796 20.76 13.502 20.699C12.769 20.54 12.217 20.121 11.819 19.487C11.479 18.937 11.294 18.33 11.168 17.702C11.153 17.63 11.144 17.556 11.122 17.484C11.116 17.467 11.092 17.454 11.049 17.412C11.021 17.492 11.007 17.564 10.982 17.638C10.92 17.836 10.867 18.036 10.789 18.231C10.568 18.78 10.161 19.061 9.56497 19.048C9.24797 19.044 8.92797 19.025 8.61297 19.002C7.97497 18.947 7.33997 18.941 6.70497 19.048C6.27897 19.12 5.88397 19.278 5.49397 19.577C5.49397 19.471 5.48397 19.414 5.49397 19.362C5.70297 18.166 6.09196 17.044 6.81196 16.048C7.29596 15.38 7.90996 14.895 8.68896 14.638C9.21296 14.46 9.74697 14.317 10.27 14.159C10.384 14.127 10.498 14.087 10.624 14.046C10.557 13.381 10.394 12.772 10.226 12.156C10.179 11.991 10.045 11.968 9.91897 11.926C9.56497 11.815 9.21397 11.723 8.86297 11.604C8.16797 11.37 7.49597 11.073 6.87997 10.661C6.43497 10.369 6.04497 10.021 5.73897 9.57904C5.64597 9.44904 5.57497 9.29904 5.51797 9.12504C7.31197 9.84204 9.15798 10.299 11.098 10.53C11.277 11.561 11.448 12.578 11.623 13.6C12.031 13.444 12.186 13.292 12.757 12.465C12.846 12.767 12.788 13.023 12.726 13.275C12.611 13.739 12.333 14.12 11.979 14.431C11.767 14.612 11.706 14.808 11.733 15.07C11.811 15.743 11.884 16.412 12.108 17.053C12.187 17.274 12.276 17.486 12.386 17.692C12.856 18.551 13.575 18.997 14.567 18.997C16.382 18.995 18.197 18.995 20.008 18.997C20.18 18.997 20.353 18.995 20.521 19.015C21.23 19.091 21.385 19.167 22.07 19.743C22.168 19.575 22.211 19.4 22.15 19.223C22.06 18.961 21.968 18.693 21.824 18.451C21.606 18.071 21.328 17.726 21.101 17.346C20.892 16.989 20.687 16.619 20.542 16.234C20.264 15.51 20.346 14.793 20.671 14.095C20.861 13.685 21.033 13.435 21.275 13.229C21.291 13.456 21.295 13.674 21.328 13.887C21.402 14.364 21.616 14.793 21.849 15.21C22.037 15.542 22.23 15.874 22.414 16.2C22.864 16.989 23.109 17.821 22.992 18.735C22.981 18.803 22.99 18.876 22.99 18.985C23.946 18.997 24.898 18.971 25.81 19.458C25.802 19.299 25.807 19.2 25.789 19.095C25.335 16.715 24.887 14.333 24.433 11.95C24.336 11.407 24.216 10.869 24.13 10.325C24.026 9.61904 24.087 8.93004 24.397 8.27604C24.633 7.77704 24.93 7.32004 25.338 6.92004C25.311 7.09104 25.285 7.26504 25.265 7.43804C25.146 8.29204 25.289 9.12304 25.448 9.95204C25.893 12.325 26.344 14.694 26.793 17.064C26.829 17.242 26.845 17.427 26.881 17.608C27.043 18.413 27.569 18.89 28.39 18.981C28.562 18.997 28.734 18.995 28.908 18.995C33.137 18.995 37.362 18.995 41.591 18.997C41.775 18.997 41.962 18.995 42.14 19.015C42.677 19.065 43.176 19.207 43.586 19.646C43.653 19.426 43.605 19.261 43.566 19.103C43.335 18.254 42.768 17.72 41.962 17.419C41.533 17.258 41.085 17.201 40.624 17.201C38.387 17.204 36.139 17.209 33.897 17.201C33.127 17.197 32.355 17.155 31.583 17.132C30.851 17.109 30.194 16.863 29.599 16.438C28.89 15.931 28.339 15.282 27.943 14.502C27.723 14.067 27.676 13.613 27.82 13.148C28.161 12.068 28.637 11.048 29.297 10.121C29.318 10.092 29.336 10.065 29.364 10.035C29.809 9.48404 30.102 9.38304 30.774 9.60204C31.729 9.91804 32.7 10.171 33.69 10.34C35.622 10.673 37.559 10.75 39.513 10.554C41.475 10.358 43.376 9.90704 45.197 9.15404C45.218 9.14304 45.247 9.14804 45.317 9.14104C45.264 9.21204 45.234 9.26504 45.195 9.31104C45.155 9.35804 45.108 9.39604 45.065 9.44304C44.261 10.203 43.32 10.746 42.303 11.161C40.968 11.707 39.574 12.02 38.145 12.205C36.756 12.386 35.364 12.413 33.965 12.348C32.684 12.287 31.436 12.056 30.198 11.739C30.043 11.701 29.886 11.66 29.734 11.637C29.255 11.567 29.007 11.851 29.123 12.32C29.157 12.449 29.206 12.578 29.271 12.697C30.034 14.131 31.186 15.054 32.785 15.405C33.012 15.454 33.247 15.454 33.476 15.454C36.42 15.456 39.364 15.478 42.302 15.448C44.092 15.43 45.138 16.867 45.401 18.082C45.521 18.624 45.393 19.151 45.159 19.652C44.829 20.35 44.328 20.918 43.773 21.445C43.555 21.653 43.323 21.846 43.068 22.072C43.025 21.974 43.001 21.921 42.98 21.867C42.807 21.438 42.492 21.17 42.065 21.021C41.648 20.87 41.219 20.787 40.768 20.787C36.605 20.791 32.437 20.794 28.271 20.784C27.893 20.784 27.513 20.722 27.148 20.634C26.903 20.576 26.687 20.416 26.449 20.294ZM10.87 15.063C9.91396 15.497 8.96697 15.626 8.04597 15.879C7.35897 16.067 6.88797 16.533 6.54697 17.144C6.51397 17.212 6.49797 17.286 6.44797 17.424C7.21897 17.095 7.96597 17.115 8.71197 17.136C9.10397 17.144 9.49597 17.157 9.88997 17.157C10.058 17.157 10.233 17.142 10.399 17.103C10.773 17.013 10.944 16.814 10.942 16.427C10.941 16.002 10.901 15.579 10.87 15.063ZM11.815 51.275C19.113 59.144 24.976 59.843 25.533 59.843C29.041 59.843 33.061 56.804 35.8 54.378C36.321 53.965 36.731 53.478 37.066 52.915C37.219 52.651 37.363 52.379 37.492 52.103C38.176 50.604 38.427 49.043 38.136 47.408C38.087 47.163 38.027 46.914 37.97 46.639C38.749 46.615 39.483 46.618 40.205 46.75C40.709 46.84 41.08 47.126 41.341 47.556C41.389 47.637 41.438 47.715 41.513 47.831C42.101 47.03 42.651 46.255 42.933 45.323C43.113 44.72 43.217 44.097 43.048 43.476C42.933 43.031 42.756 42.595 42.561 42.174C42.377 41.778 42.128 41.406 41.911 41.024C41.659 40.572 41.458 40.101 41.399 39.58C41.387 39.43 41.38 39.276 41.363 39.04C40.886 39.656 40.565 40.242 40.498 40.948C40.431 41.676 40.648 42.33 41.025 42.939C41.295 43.376 41.605 43.791 41.866 44.229C42.019 44.475 42.138 44.748 42.237 45.023C42.303 45.209 42.303 45.42 42.164 45.612C42.104 45.571 42.074 45.555 42.047 45.529C41.7 45.142 41.262 44.965 40.746 44.93C40.504 44.912 40.259 44.896 40.016 44.893C39.355 44.883 38.694 44.893 38.028 44.874C37.292 44.852 36.761 44.502 36.421 43.836C36.234 43.464 36.028 43.103 35.82 42.742C35.403 42.029 35.01 41.313 35.069 40.429C34.452 41.163 34.066 41.963 34.218 42.947C34.308 43.524 34.573 44.032 34.875 44.527C35.355 45.324 35.826 46.127 36.315 46.922C37.162 48.283 37.404 49.762 37.199 51.332C37.168 51.561 37.085 51.739 36.904 51.896C35.712 52.959 34.592 53.699 33.05 54.703C31.321 55.829 28.071 57.411 24.483 57.411C19.113 57.414 11.83 51.272 11.815 51.275ZM17.377 43.706C17.385 42.626 16.779 41.793 15.796 41.544C15.5 41.466 15.192 41.438 14.887 41.436C12.89 41.427 10.893 41.436 8.89697 41.427C7.97897 41.424 7.42996 40.955 7.26196 40.061C7.24896 39.988 7.22897 39.916 7.19697 39.794C6.91297 40.248 6.74197 40.675 6.68497 41.147C6.55297 42.255 7.16396 43.029 8.27496 43.167C8.51596 43.195 8.76396 43.208 9.00596 43.208C10.344 43.213 11.681 43.211 13.017 43.211C13.578 43.211 14.146 43.195 14.707 43.219C15.67 43.26 16.505 44.346 16.326 45.34C15.972 44.878 15.476 44.836 14.97 44.82C14.894 44.814 14.82 44.814 14.746 44.814C13.83 44.814 12.906 44.82 11.989 44.814C11.29 44.814 10.594 44.82 9.89497 44.801C9.36697 44.787 8.93797 44.592 8.71297 44.076C8.70797 44.064 8.67397 44.064 8.65797 44.06C8.39797 44.506 8.22496 45.025 8.20396 45.404C8.17696 45.939 8.35997 46.245 8.87697 46.4C9.17697 46.49 9.50197 46.546 9.81497 46.55C11.039 46.568 12.268 46.558 13.489 46.558C14.307 46.558 14.967 46.867 15.408 47.576C15.445 47.634 15.494 47.682 15.567 47.776C15.843 47.45 16.115 47.167 16.343 46.849C16.493 46.631 16.656 46.558 16.916 46.563C17.405 46.575 17.9 46.575 18.384 46.54C19.103 46.483 19.719 46.223 20.118 45.576C20.133 45.557 20.169 45.548 20.172 45.542C20.28 45.885 20.344 46.237 20.494 46.552C20.782 47.142 21.116 47.709 21.444 48.302C22.083 47.737 22.699 47.149 23.079 46.314C23.325 46.62 23.56 46.877 23.74 47.16C23.926 47.456 24.051 47.785 24.217 48.128C24.561 47.746 24.901 47.38 25.225 46.997C25.579 46.587 25.891 46.151 26.105 45.649C26.39 44.982 26.419 44.308 26.069 43.664C25.822 43.202 25.551 42.748 25.254 42.315C24.797 41.658 24.426 40.986 24.586 40.116C24.524 40.151 24.488 40.162 24.467 40.181C23.555 41.257 23.418 42.603 24.225 43.736C24.479 44.093 24.774 44.429 25.018 44.795C25.174 45.021 25.303 45.279 25.392 45.543C25.482 45.797 25.438 46.059 25.187 46.307C24.942 45.688 24.562 45.203 24.184 44.728C24.055 44.562 23.935 44.395 23.807 44.228C23.049 43.213 22.943 42.124 23.443 40.969C23.482 40.873 23.522 40.776 23.562 40.68C23.535 40.668 23.513 40.655 23.489 40.643C23.28 40.94 23.061 41.232 22.869 41.545C22.121 42.736 21.931 43.991 22.473 45.326C22.556 45.528 22.62 45.744 22.672 45.959C22.718 46.151 22.688 46.337 22.491 46.491C21.936 45.82 21.593 45.093 21.51 44.252C21.406 43.213 21.724 42.294 22.332 41.466C22.421 41.342 22.509 41.221 22.602 41.101C22.485 41.096 22.409 41.127 22.345 41.172C21.673 41.617 21.161 42.196 20.864 42.953C20.778 43.17 20.701 43.391 20.606 43.601C20.253 44.36 19.649 44.764 18.821 44.813C18.396 44.835 17.967 44.82 17.534 44.814C17.454 44.814 17.371 44.794 17.289 44.783C17.318 44.409 17.374 44.057 17.377 43.706ZM36.856 23.124C36.774 23.173 36.684 23.217 36.602 23.267C35.013 24.189 33.324 24.883 31.534 25.273C30.598 25.476 29.767 25.832 28.991 26.355C28.928 26.403 28.863 26.452 28.799 26.498C28.94 26.535 29.056 26.526 29.174 26.506C29.753 26.392 30.329 26.29 30.902 26.157C32.185 25.875 33.45 25.553 34.668 25.056C35.419 24.749 36.072 24.303 36.591 23.679C36.719 23.52 36.818 23.343 36.931 23.177C36.905 23.16 36.881 23.141 36.856 23.124ZM21.888 8.91604C21.796 8.94804 21.707 8.98104 21.615 9.01904C19.935 9.74904 18.183 10.248 16.359 10.456C15.492 10.55 14.676 10.743 13.919 11.167C13.772 11.25 13.618 11.313 13.466 11.382C13.565 11.431 13.647 11.439 13.72 11.431C14.171 11.395 14.624 11.359 15.074 11.322C16.393 11.2 17.699 11.016 18.99 10.719C19.775 10.539 20.513 10.26 21.165 9.77604C21.469 9.54504 21.744 9.29104 21.962 8.94904C21.912 8.92404 21.896 8.91304 21.888 8.91604ZM39.275 27.386C39.912 27.369 40.569 27.376 41.222 27.33C42.147 27.27 43.048 27.078 43.886 26.661C44.38 26.409 44.812 26.074 45.111 25.598C45.188 25.478 45.257 25.348 45.306 25.219C45.386 25.016 45.314 24.895 45.098 24.879C44.912 24.867 44.723 24.892 44.539 24.892C44.189 24.892 44.051 24.813 43.957 24.482C43.891 24.274 43.853 24.049 43.868 23.836C43.913 23.386 44.316 23.175 44.712 23.398C45.218 23.683 45.518 24.132 45.503 24.712C45.473 25.937 44.927 26.755 43.837 27.302C43.6 27.418 43.316 27.467 43.045 27.505C41.861 27.658 40.683 27.644 39.508 27.448C39.423 27.434 39.341 27.403 39.275 27.386ZM45.086 24.296C44.952 24.067 44.849 23.982 44.648 23.903C44.332 23.777 44.172 23.868 44.095 24.24C44.417 24.403 44.758 24.237 45.086 24.296ZM5.99896 22.731C5.66396 22.315 5.41597 21.896 5.52997 21.345C5.85997 21.673 6.16697 21.976 6.49197 22.297C6.94897 21.946 7.35297 21.62 7.58397 21.072C7.81197 21.806 7.30397 22.166 6.90297 22.587C7.27397 22.956 7.72797 23.246 7.85597 23.75C7.96597 24.179 7.95996 24.64 8.01196 25.174C7.49396 24.903 7.05897 25.022 6.62297 25.202C6.55597 25.227 6.48197 25.248 6.41197 25.259C6.02197 25.331 5.80497 25.219 5.65097 24.856C5.37897 24.211 5.46297 23.586 5.80997 22.997C5.85997 22.912 5.92096 22.837 5.99896 22.731ZM6.34596 23.041C6.04296 23.273 5.81497 23.505 5.74397 23.847C5.66697 24.199 5.92096 24.519 6.27496 24.508C6.40896 24.506 6.53897 24.464 6.67097 24.428C6.98397 24.35 7.29497 24.269 7.65097 24.17C7.36297 23.649 6.78396 23.442 6.34596 23.041ZM15.609 27.61C15.605 27.829 15.625 28.046 15.752 28.234C15.892 28.43 16.044 28.616 16.219 28.848C16.395 28.578 16.545 28.346 16.717 28.08C16.873 28.25 17.028 28.419 17.209 28.617C17.369 28.319 17.541 28.036 17.673 27.735C17.789 27.466 17.752 27.194 17.57 26.955C17.499 26.859 17.427 26.765 17.349 26.678C17.134 26.448 16.895 26.228 16.851 25.877C16.652 26.182 16.606 26.493 16.757 26.806C16.826 26.945 16.937 27.062 17.037 27.178C17.146 27.303 17.274 27.411 17.377 27.541C17.464 27.646 17.537 27.768 17.478 27.843C17.292 27.694 17.104 27.555 16.927 27.401C16.582 27.109 16.411 26.741 16.483 26.28C16.486 26.27 16.465 26.256 16.446 26.225C16.212 26.67 16.115 27.108 16.334 27.579C16.39 27.701 16.458 27.822 16.507 27.95C16.528 27.999 16.504 28.066 16.501 28.148C15.956 27.721 15.859 27.201 16.127 26.345C15.789 26.698 15.625 27.123 15.609 27.61ZM16.702 15.161C16.741 15.192 16.791 15.219 16.827 15.26C16.945 15.389 17.06 15.525 17.187 15.673C17.312 15.467 17.451 15.277 17.558 15.072C17.828 14.561 17.788 14.25 17.41 13.808C17.296 13.678 17.161 13.557 17.06 13.412C16.969 13.276 16.911 13.11 16.834 12.955C16.581 13.378 16.618 13.799 16.938 14.143C17.078 14.294 17.233 14.427 17.367 14.588C17.455 14.694 17.547 14.824 17.485 14.892C17.269 14.719 17.046 14.56 16.839 14.376C16.567 14.133 16.44 13.826 16.476 13.454C16.481 13.409 16.471 13.36 16.461 13.252C16.177 13.792 16.113 14.276 16.392 14.766C16.437 14.842 16.479 14.922 16.503 15.005C16.518 15.059 16.501 15.123 16.493 15.244C15.916 14.687 15.841 14.097 16.117 13.428C15.811 13.729 15.68 14.097 15.615 14.503C15.515 15.077 15.841 15.467 16.225 15.902C16.391 15.644 16.54 15.411 16.702 15.161ZM39.96 47.736C39.472 47.747 39.089 48.157 39.105 48.649C39.121 49.128 39.506 49.499 39.994 49.496C40.49 49.491 40.871 49.101 40.862 48.6C40.854 48.104 40.463 47.728 39.96 47.736ZM8.49296 12.153C8.00696 12.156 7.61397 12.557 7.62297 13.051C7.62897 13.533 8.00697 13.907 8.49097 13.914C8.98997 13.921 9.38397 13.533 9.38397 13.039C9.38397 12.55 8.98396 12.145 8.49296 12.153ZM21.273 39.489C21.267 39.015 20.881 38.623 20.41 38.623C19.923 38.623 19.517 39.027 19.517 39.512C19.519 40.006 19.914 40.396 20.41 40.393C20.91 40.388 21.283 39.994 21.273 39.489ZM18.315 37.383C18.3 37.871 18.656 38.269 19.128 38.298C19.622 38.329 20.049 37.959 20.075 37.475C20.112 36.988 19.729 36.563 19.241 36.538C18.738 36.516 18.334 36.885 18.315 37.383ZM19.218 23.25C19.207 22.778 18.81 22.383 18.343 22.378C17.862 22.373 17.447 22.778 17.445 23.259C17.439 23.747 17.843 24.15 18.34 24.143C18.83 24.14 19.231 23.732 19.218 23.25ZM17.966 38.623C17.485 38.638 17.086 39.057 17.098 39.542C17.112 40.006 17.516 40.397 17.981 40.396C18.478 40.393 18.868 39.999 18.862 39.5C18.858 39.009 18.449 38.611 17.966 38.623ZM6.31998 12.153C5.83198 12.153 5.42997 12.561 5.43297 13.045C5.43897 13.524 5.81997 13.905 6.29997 13.914C6.80697 13.922 7.19397 13.547 7.19597 13.044C7.19997 12.549 6.80798 12.148 6.31998 12.153ZM34.425 48.771C33.935 48.771 33.536 49.168 33.539 49.655C33.539 50.135 33.915 50.518 34.394 50.53C34.904 50.543 35.292 50.168 35.295 49.668C35.298 49.168 34.919 48.771 34.425 48.771ZM16.8 23.255C16.795 22.786 16.399 22.39 15.933 22.379C15.449 22.368 15.044 22.763 15.037 23.255C15.031 23.754 15.417 24.144 15.917 24.144C16.407 24.144 16.807 23.746 16.8 23.255Z" fill="#9C9C98"/>
</svg>
