<?xml version="1.0" encoding="utf-8"?>
<!-- Generator: Adobe Illustrator 16.0.2, SVG Export Plug-In . SVG Version: 6.00 Build 0)  -->
<!DOCTYPE svg PUBLIC "-//W3C//DTD SVG 1.1//EN" "http://www.w3.org/Graphics/SVG/1.1/DTD/svg11.dtd">
<svg version="1.1" id="Layer_1" xmlns="http://www.w3.org/2000/svg" xmlns:xlink="http://www.w3.org/1999/xlink" x="0px" y="0px"
	 width="256px" height="71px" viewBox="0 0 256 71" enable-background="new 0 0 256 71" xml:space="preserve">
<g>
	<g>
		<path fill="#FFFFFF" d="M220.231,68.925c-24.157-8.501-24.855-32.207-24.855-34.882V4.227l0.907,0.447
			c2.996,1.475,6.164,2.223,9.417,2.223c4.796,0,9.626-1.573,14.395-4.676l0.343-0.223l0.343,0.223
			c4.772,3.103,9.604,4.676,14.36,4.676c3.281,0,6.464-0.748,9.457-2.223l0.908-0.447v29.816c0,2.675-0.697,26.381-24.856,34.882
			l-0.209,0.074L220.231,68.925z"/>
		<path fill="#092360" d="M244.876,34.042V5.239c-2.548,1.255-5.835,2.287-9.735,2.287c-4.881,0-9.818-1.602-14.703-4.778
			c-4.881,3.176-9.817,4.778-14.699,4.778c-3.899,0.007-7.184-1.032-9.732-2.287v28.804c0,6.871,3.011,26.75,24.435,34.29
			C241.865,60.792,244.876,40.913,244.876,34.042z"/>
		<path fill="#9C9C98" d="M210.384,34.848c0.272,0,0.503,0.038,0.709-0.008c0.8-0.186,1.499-0.547,1.934-1.281
			c0.178-0.305,0.328-0.634,0.5-0.94c0.148-0.268,0.288-0.548,0.473-0.782c0.503-0.635,1.349-0.712,1.956-0.189
			c0.203,0.173,0.364,0.396,0.519,0.618c0.298,0.432,0.562,0.89,0.863,1.32c0.161,0.23,0.351,0.441,0.553,0.639
			c0.353,0.344,0.778,0.556,1.272,0.599c0.375,0.035,0.751,0.036,1.147,0.055c0-0.125,0.015-0.204,0-0.281
			c-0.46-2.408-0.479-3.256-0.963-5.654c-0.218-1.086-0.04-2.066,0.563-2.982c0.179-0.27,0.374-0.529,0.596-0.781
			c-0.295,1.246-0.016,2.447,0.211,3.649c0.454,2.369,0.491,3.177,0.944,5.549c0.025,0.144,0.062,0.284,0.089,0.42
			c0.273,0.085,1.165,0.1,1.646,0.025c0.04-0.158,0.084-0.331,0.123-0.505c0.175-0.744,0.367-1.475,0.715-2.157
			c0.142-0.274,0.294-0.542,0.481-0.781c0.76-0.98,1.956-1.283,3.094-0.785c0.291,0.125,0.572,0.284,0.833,0.467
			c1.099,0.757,2.328,1.063,3.643,1.091c0.399,0.008,0.808-0.009,1.212-0.015c0.082,0,0.163,0,0.297,0
			c-0.103,0.168-0.184,0.302-0.27,0.427c-0.251,0.38-0.512,0.751-0.752,1.137c-0.103,0.169-0.223,0.223-0.422,0.208
			c-0.31-0.019-0.629-0.004-0.939-0.004c-0.023,0.602,0.188,0.909,0.703,0.968c0.813,0.094,1.609,0.045,2.383-0.273
			c0.457-0.186,0.828-0.475,1.098-0.887c0.185-0.284,0.34-0.59,0.521-0.881c0.165-0.274,0.315-0.559,0.515-0.802
			c0.528-0.653,1.389-0.708,2.011-0.143c0.126,0.118,0.236,0.254,0.331,0.395c0.481,0.683,0.896,1.408,1.209,2.18
			c0.377,0.94,0.377,1.866-0.147,2.758c-0.126,0.21-0.239,0.423-0.358,0.631c-0.034-0.005-0.067,0.004-0.074-0.008
			c-0.249-0.418-0.641-0.637-1.078-0.773c-0.434-0.133-0.874-0.237-1.307-0.374c-0.289-0.091-0.573-0.208-0.858-0.327
			c-0.405-0.173-0.614-0.508-0.685-0.935c-0.015-0.118-0.03-0.239-0.053-0.414c-0.079,0.095-0.14,0.145-0.175,0.212
			c-0.502,0.917-1.273,1.385-2.323,1.434c-0.479,0.023-0.954,0.036-1.417-0.103c-0.597-0.171-0.858-0.512-0.822-1.137
			c0.022-0.326,0.114-0.647,0.182-0.969c0.036-0.166,0.092-0.332,0.141-0.507c-0.294-0.068-0.551,0.021-0.813,0.068
			c-0.876,0.156-1.688,0.502-2.486,0.885c-1.039,0.491-2.076,0.995-3.186,1.32c-0.315,0.096-0.635,0.196-0.959,0.251
			c-0.25,0.04-0.357,0.167-0.391,0.397c-0.046,0.33-0.11,0.653-0.162,0.979c-0.021,0.106-0.05,0.208-0.089,0.387
			c-0.17-0.564-0.084-1.057-0.062-1.584c-0.322,0-0.616,0-0.96,0c0.895,5.147,1.962,10.244,2.877,14.977
			c0.116-0.072,0.208-0.109,0.269-0.174c0.501-0.488,1.024-0.955,1.479-1.479c0.72-0.838,0.82-2.142,0.281-3.103
			c-0.184-0.332-0.402-0.643-0.596-0.968c-0.161-0.276-0.324-0.552-0.465-0.838c-0.454-0.957-0.399-1.9,0.141-2.808
			c0.116-0.198,0.254-0.382,0.381-0.579c0.027,0.009,0.048,0.015,0.076,0.016c0,0.141-0.006,0.28,0.003,0.419
			c0.039,0.496,0.209,0.954,0.451,1.388c0.23,0.419,0.472,0.831,0.704,1.246c0.801,1.444,0.758,2.91,0.044,4.362
			c-0.638,1.292-1.41,2.499-2.469,3.499c-0.122,0.116-0.178,0.246-0.18,0.417c-0.022,0.876-0.284,1.688-0.743,2.434
			c-0.227,0.372-0.46,0.741-0.72,1.103c0.175-0.857,0.303-1.704,0.242-2.646c-0.148,0.105-0.256,0.174-0.358,0.25
			c-0.722,0.541-1.485,0.995-2.322,1.33c-0.855,0.346-1.729,0.407-2.634,0.286c-2.161-0.282-4.622-0.905-6.664-1.647
			c-2.377-0.868-5.435-2.477-6.926-3.722c0.135,0.054,5.845,3.359,14.001,3.359c1.533-0.098,3.001-0.438,4.387-1.114
			c0.092-0.042,0.179-0.091,0.261-0.137c0.034-0.019,0.056-0.046,0.119-0.098c-0.923-4.878-1.87-9.796-3.032-15.783
			c-0.144-0.008-0.263-0.019-0.383-0.021c-0.232-0.005-0.463-0.003-0.698-0.007c-0.587-0.021-1.145-0.142-1.616-0.52
			c-0.037-0.028-0.083-0.044-0.098-0.053c-0.218,0.525-0.431,1.039-0.666,1.601c-0.098-0.11-0.156-0.168-0.208-0.228
			c-0.196-0.247-0.457-0.412-0.755-0.5c-0.469-0.135-0.953-0.233-1.42-0.371c-0.365-0.105-0.72-0.227-1.075-0.369
			c-0.378-0.144-0.553-0.462-0.639-0.84c-0.027-0.131-0.052-0.261-0.091-0.459c-0.093,0.151-0.148,0.255-0.216,0.344
			c-0.229,0.287-0.437,0.596-0.696,0.849c-0.392,0.384-0.897,0.532-1.444,0.546c-0.269,0.002-0.542,0.007-0.809-0.004
			c-0.182-0.005-0.289,0.063-0.393,0.21c-0.239,0.353-0.51,0.686-0.862,0.975c-0.055-0.071-0.097-0.127-0.135-0.184
			c-0.429-0.677-1.052-1.001-1.849-0.997c-1.092,0.002-2.183,0-3.272,0c-0.469,0-0.932,0.012-1.397-0.009
			c-0.254-0.011-0.516-0.05-0.754-0.126c-0.53-0.176-0.786-0.55-0.801-1.109c-0.009-0.477,0.205-1.221,0.53-1.767
			c0.034,0.057,0.065,0.099,0.086,0.148c0.252,0.617,0.737,0.934,1.364,1.042c0.313,0.057,0.635,0.081,0.95,0.085
			c1.56,0.002,3.117-0.008,4.671-0.004c0.226,0,0.472,0,0.689,0.067c0.248,0.079,0.473,0.229,0.725,0.352
			c0.002-0.025,0.03-0.098,0.02-0.17c-0.054-0.5-0.226-0.953-0.557-1.334c-0.338-0.382-0.767-0.547-1.275-0.543
			c-1.678,0.006-3.355,0.008-5.035-0.004c-0.325-0.004-0.662-0.046-0.975-0.14c-0.795-0.239-1.227-0.873-1.185-1.694
			c0.024-0.559,0.213-1.071,0.546-1.582c0.025,0.137,0.058,0.217,0.064,0.302c0.087,0.722,0.589,1.322,1.61,1.355
			c0.696,0.022,1.397,0.004,2.095,0.004c1.118,0,2.232-0.004,3.348,0.003c0.205,0,0.417,0.008,0.619,0.046
			c1.046,0.212,1.714,1.001,1.755,2.066c0.008,0.242-0.019,0.489-0.041,0.731C210.427,34.497,210.405,34.654,210.384,34.848z
			 M223.905,34.705c0.792,0.076,4.137-0.964,4.674-1.444c-0.779-0.426-1.586-0.774-2.468-0.889c-0.65-0.083-1.184,0.141-1.558,0.688
			C224.216,33.551,224.038,34.104,223.905,34.705z M217.134,35.16c-0.52-0.572-0.989-1.104-1.476-1.615
			c-0.142-0.144-0.332-0.247-0.518-0.34c-0.249-0.129-0.52-0.125-0.779-0.004c-0.292,0.141-0.534,0.333-0.705,0.609
			c0.079,0.236,0.227,0.401,0.432,0.491c0.252,0.116,0.515,0.225,0.788,0.293C215.593,34.786,216.316,34.958,217.134,35.16z
			 M239.348,35.25c-0.347-0.489-0.651-0.969-1.003-1.4c-0.639-0.778-1.234-0.796-1.951-0.089c-0.054,0.056-0.104,0.127-0.146,0.188
			c0.064,0.277,0.238,0.443,0.469,0.552c0.184,0.09,0.383,0.162,0.583,0.216C237.955,34.897,238.614,35.062,239.348,35.25z
			 M221.449,22.294c-0.304,0.479-0.592,0.944-0.901,1.439c-0.104-0.116-0.175-0.181-0.229-0.254
			c-0.332-0.421-0.764-0.657-1.294-0.674c-0.54-0.024-1.079-0.008-1.616-0.017c-0.162-0.003-0.242,0.08-0.321,0.198
			c-0.209,0.317-0.43,0.623-0.669,0.956c-0.059-0.077-0.099-0.118-0.129-0.17c-0.324-0.624-0.874-0.9-1.545-0.967
			c-0.196-0.017-0.393-0.012-0.589-0.012c-1.583-0.003-3.164,0.003-4.743-0.004c-0.308-0.003-0.617-0.029-0.911-0.09
			c-0.733-0.159-1.285-0.578-1.683-1.212c-0.34-0.55-0.525-1.157-0.651-1.785c-0.015-0.072-0.024-0.146-0.046-0.218
			c-0.006-0.017-0.03-0.03-0.073-0.072c-0.028,0.08-0.042,0.152-0.067,0.226c-0.062,0.198-0.115,0.398-0.193,0.593
			c-0.221,0.549-0.628,0.83-1.224,0.817c-0.317-0.004-0.637-0.023-0.952-0.046c-0.638-0.055-1.273-0.061-1.908,0.046
			c-0.426,0.072-0.821,0.23-1.211,0.529c0-0.106-0.01-0.163,0-0.215c0.209-1.196,0.598-2.318,1.318-3.314
			c0.484-0.668,1.098-1.153,1.877-1.41c0.524-0.178,1.058-0.321,1.581-0.479c0.114-0.032,0.228-0.072,0.354-0.113
			c-0.067-0.665-0.23-1.274-0.398-1.89c-0.047-0.165-0.181-0.188-0.307-0.23c-0.354-0.111-0.705-0.203-1.056-0.322
			c-0.695-0.234-1.367-0.531-1.983-0.943c-0.445-0.292-0.835-0.64-1.141-1.082c-0.093-0.13-0.164-0.28-0.221-0.454
			c1.794,0.717,3.64,1.174,5.58,1.405c0.179,1.031,0.35,2.048,0.525,3.07c0.408-0.156,0.563-0.308,1.134-1.135
			c0.089,0.302,0.031,0.558-0.031,0.81c-0.115,0.464-0.393,0.845-0.747,1.156c-0.212,0.181-0.273,0.377-0.246,0.639
			c0.078,0.673,0.151,1.342,0.375,1.983c0.079,0.221,0.168,0.433,0.278,0.639c0.47,0.859,1.189,1.305,2.181,1.305
			c1.815-0.002,3.63-0.002,5.441,0c0.172,0,0.345-0.002,0.513,0.018c0.709,0.076,0.864,0.152,1.549,0.728
			c0.098-0.168,0.141-0.343,0.08-0.52c-0.09-0.262-0.182-0.53-0.326-0.772c-0.218-0.38-0.496-0.725-0.723-1.105
			c-0.209-0.357-0.414-0.727-0.559-1.112c-0.278-0.724-0.196-1.441,0.129-2.139c0.19-0.41,0.362-0.66,0.604-0.866
			c0.016,0.227,0.02,0.445,0.053,0.658c0.074,0.477,0.288,0.906,0.521,1.323c0.188,0.332,0.381,0.664,0.565,0.99
			c0.45,0.789,0.695,1.621,0.578,2.535c-0.011,0.068-0.002,0.141-0.002,0.25c0.956,0.012,1.908-0.014,2.82,0.473
			c-0.008-0.159-0.003-0.258-0.021-0.363c-0.454-2.38-0.902-4.762-1.356-7.145c-0.097-0.543-0.217-1.081-0.303-1.625
			c-0.104-0.706-0.043-1.395,0.267-2.049c0.236-0.499,0.533-0.956,0.941-1.356c-0.027,0.171-0.053,0.345-0.073,0.518
			c-0.119,0.854,0.024,1.685,0.183,2.514c0.445,2.373,0.896,4.742,1.345,7.112c0.036,0.178,0.052,0.363,0.088,0.544
			c0.162,0.805,0.688,1.282,1.509,1.373c0.172,0.016,0.344,0.014,0.518,0.014c4.229,0,8.454,0,12.683,0.002
			c0.184,0,0.371-0.002,0.549,0.018c0.537,0.05,1.036,0.192,1.446,0.631c0.067-0.22,0.019-0.385-0.02-0.543
			c-0.231-0.849-0.798-1.383-1.604-1.684c-0.429-0.161-0.877-0.218-1.338-0.218c-2.237,0.003-4.485,0.008-6.727,0
			c-0.77-0.004-1.542-0.046-2.314-0.069c-0.732-0.023-1.389-0.269-1.984-0.694c-0.709-0.507-1.26-1.156-1.656-1.936
			c-0.22-0.435-0.267-0.889-0.123-1.354c0.341-1.08,0.817-2.1,1.477-3.027c0.021-0.029,0.039-0.056,0.067-0.086
			c0.445-0.551,0.738-0.652,1.41-0.433c0.955,0.316,1.926,0.569,2.916,0.738c1.932,0.333,3.869,0.41,5.823,0.214
			c1.962-0.196,3.863-0.647,5.684-1.4c0.021-0.011,0.05-0.006,0.12-0.013c-0.053,0.071-0.083,0.124-0.122,0.17
			c-0.04,0.047-0.087,0.085-0.13,0.132c-0.804,0.76-1.745,1.303-2.762,1.718c-1.335,0.546-2.729,0.859-4.158,1.044
			c-1.389,0.181-2.781,0.208-4.18,0.143c-1.281-0.061-2.529-0.292-3.767-0.609c-0.155-0.038-0.312-0.079-0.464-0.102
			c-0.479-0.07-0.727,0.214-0.611,0.683c0.034,0.129,0.083,0.258,0.148,0.377c0.763,1.434,1.915,2.357,3.514,2.708
			c0.227,0.049,0.462,0.049,0.691,0.049c2.944,0.002,5.888,0.024,8.826-0.006c1.79-0.018,2.836,1.419,3.099,2.634
			c0.12,0.542-0.008,1.069-0.242,1.57c-0.33,0.698-0.831,1.266-1.386,1.793c-0.218,0.208-0.45,0.401-0.705,0.627
			c-0.043-0.098-0.067-0.151-0.088-0.205c-0.173-0.429-0.488-0.697-0.915-0.846c-0.417-0.151-0.846-0.234-1.297-0.234
			c-4.163,0.004-8.331,0.007-12.497-0.003c-0.378,0-0.758-0.062-1.123-0.15C221.903,22.576,221.687,22.416,221.449,22.294z
			 M205.87,17.063c-0.956,0.434-1.903,0.563-2.824,0.816c-0.687,0.188-1.158,0.654-1.499,1.265c-0.033,0.068-0.049,0.142-0.099,0.28
			c0.771-0.329,1.518-0.309,2.264-0.288c0.392,0.008,0.784,0.021,1.178,0.021c0.168,0,0.343-0.015,0.509-0.054
			c0.374-0.09,0.545-0.289,0.543-0.676C205.941,18.002,205.901,17.579,205.87,17.063z M206.815,53.275
			c7.298,7.869,13.161,8.568,13.718,8.568c3.508,0,7.528-3.039,10.267-5.465c0.521-0.413,0.931-0.9,1.266-1.463
			c0.153-0.264,0.297-0.536,0.426-0.812c0.684-1.499,0.935-3.06,0.644-4.695c-0.049-0.245-0.109-0.494-0.166-0.769
			c0.779-0.024,1.513-0.021,2.235,0.111c0.504,0.09,0.875,0.376,1.136,0.806c0.048,0.081,0.097,0.159,0.172,0.275
			c0.588-0.801,1.138-1.576,1.42-2.508c0.18-0.603,0.284-1.226,0.115-1.847c-0.115-0.445-0.292-0.881-0.487-1.302
			c-0.184-0.396-0.433-0.768-0.65-1.15c-0.252-0.452-0.453-0.923-0.512-1.444c-0.012-0.15-0.019-0.304-0.036-0.54
			c-0.477,0.616-0.798,1.202-0.865,1.908c-0.067,0.728,0.15,1.382,0.527,1.991c0.27,0.437,0.58,0.852,0.841,1.29
			c0.153,0.246,0.272,0.519,0.371,0.794c0.066,0.186,0.066,0.397-0.073,0.589c-0.06-0.041-0.09-0.057-0.117-0.083
			c-0.347-0.387-0.785-0.564-1.301-0.599c-0.242-0.018-0.487-0.034-0.73-0.037c-0.661-0.01-1.322,0-1.988-0.019
			c-0.736-0.022-1.267-0.372-1.607-1.038c-0.187-0.372-0.393-0.733-0.601-1.094c-0.417-0.713-0.81-1.429-0.751-2.313
			c-0.617,0.734-1.003,1.534-0.851,2.518c0.09,0.577,0.355,1.085,0.657,1.58c0.48,0.797,0.951,1.6,1.44,2.395
			c0.847,1.361,1.089,2.84,0.884,4.41c-0.031,0.229-0.114,0.407-0.295,0.564c-1.192,1.063-2.312,1.803-3.854,2.807
			c-1.729,1.126-4.979,2.708-8.567,2.708C214.113,59.414,206.83,53.272,206.815,53.275z M212.377,45.706
			c0.008-1.08-0.598-1.913-1.581-2.162c-0.296-0.078-0.604-0.106-0.909-0.108c-1.997-0.009-3.994,0-5.99-0.009
			c-0.918-0.003-1.467-0.472-1.635-1.366c-0.013-0.073-0.033-0.145-0.065-0.267c-0.284,0.454-0.455,0.881-0.512,1.353
			c-0.132,1.108,0.479,1.882,1.59,2.02c0.241,0.028,0.489,0.041,0.731,0.041c1.338,0.005,2.675,0.003,4.011,0.003
			c0.561,0,1.129-0.016,1.69,0.008c0.963,0.041,1.798,1.127,1.619,2.121c-0.354-0.462-0.85-0.504-1.356-0.52
			c-0.076-0.006-0.15-0.006-0.224-0.006c-0.916,0-1.84,0.006-2.757,0c-0.699,0-1.395,0.006-2.094-0.013
			c-0.528-0.014-0.957-0.209-1.182-0.725c-0.005-0.012-0.039-0.012-0.055-0.016c-0.26,0.446-0.433,0.965-0.454,1.344
			c-0.027,0.535,0.156,0.841,0.673,0.996c0.3,0.09,0.625,0.146,0.938,0.15c1.224,0.018,2.453,0.008,3.674,0.008
			c0.818,0,1.478,0.309,1.919,1.018c0.037,0.058,0.086,0.106,0.159,0.2c0.276-0.326,0.548-0.609,0.776-0.927
			c0.15-0.218,0.313-0.291,0.573-0.286c0.489,0.012,0.984,0.012,1.468-0.023c0.719-0.057,1.335-0.317,1.734-0.964
			c0.015-0.019,0.051-0.028,0.054-0.034c0.108,0.343,0.172,0.695,0.322,1.01c0.288,0.59,0.622,1.157,0.95,1.75
			c0.639-0.565,1.255-1.153,1.635-1.988c0.246,0.306,0.481,0.563,0.661,0.846c0.186,0.296,0.311,0.625,0.477,0.968
			c0.344-0.382,0.684-0.748,1.008-1.131c0.354-0.41,0.666-0.846,0.88-1.348c0.285-0.667,0.314-1.341-0.036-1.985
			c-0.247-0.462-0.518-0.916-0.815-1.349c-0.457-0.657-0.828-1.329-0.668-2.199c-0.062,0.035-0.098,0.046-0.119,0.065
			c-0.912,1.076-1.049,2.422-0.242,3.555c0.254,0.357,0.549,0.693,0.793,1.059c0.156,0.226,0.285,0.484,0.374,0.748
			c0.09,0.254,0.046,0.516-0.205,0.764c-0.245-0.619-0.625-1.104-1.003-1.579c-0.129-0.166-0.249-0.333-0.377-0.5
			c-0.758-1.015-0.864-2.104-0.364-3.259c0.039-0.096,0.079-0.193,0.119-0.289c-0.027-0.012-0.049-0.025-0.073-0.037
			c-0.209,0.297-0.428,0.589-0.62,0.902c-0.748,1.191-0.938,2.446-0.396,3.781c0.083,0.202,0.147,0.418,0.199,0.633
			c0.046,0.192,0.016,0.378-0.181,0.532c-0.555-0.671-0.898-1.398-0.981-2.239c-0.104-1.039,0.214-1.958,0.822-2.786
			c0.089-0.124,0.177-0.245,0.27-0.365c-0.117-0.005-0.193,0.026-0.257,0.071c-0.672,0.445-1.184,1.024-1.481,1.781
			c-0.086,0.217-0.163,0.438-0.258,0.648c-0.353,0.759-0.957,1.163-1.785,1.212c-0.425,0.022-0.854,0.007-1.287,0.001
			c-0.08,0-0.163-0.02-0.245-0.031C212.318,46.409,212.374,46.057,212.377,45.706z M231.856,25.124
			c-0.082,0.049-0.172,0.093-0.254,0.143c-1.589,0.922-3.278,1.616-5.068,2.006c-0.936,0.203-1.767,0.559-2.543,1.082
			c-0.063,0.048-0.128,0.097-0.192,0.143c0.141,0.037,0.257,0.028,0.375,0.008c0.579-0.114,1.155-0.216,1.728-0.349
			c1.283-0.282,2.548-0.604,3.766-1.101c0.751-0.307,1.404-0.753,1.923-1.377c0.128-0.159,0.227-0.336,0.34-0.502
			C231.905,25.16,231.881,25.141,231.856,25.124z M216.888,10.916c-0.092,0.032-0.181,0.065-0.273,0.103
			c-1.68,0.73-3.432,1.229-5.256,1.437c-0.867,0.094-1.683,0.287-2.44,0.711c-0.147,0.083-0.301,0.146-0.453,0.215
			c0.099,0.049,0.181,0.057,0.254,0.049c0.451-0.036,0.904-0.072,1.354-0.109c1.319-0.122,2.625-0.306,3.916-0.603
			c0.785-0.18,1.523-0.459,2.175-0.943c0.304-0.231,0.579-0.485,0.797-0.827C216.912,10.924,216.896,10.913,216.888,10.916z
			 M234.275,29.386c0.637-0.017,1.294-0.01,1.947-0.056c0.925-0.06,1.826-0.252,2.664-0.669c0.494-0.252,0.926-0.587,1.225-1.063
			c0.077-0.12,0.146-0.25,0.195-0.379c0.08-0.203,0.008-0.324-0.208-0.34c-0.186-0.012-0.375,0.013-0.559,0.013
			c-0.35,0-0.488-0.079-0.582-0.41c-0.066-0.208-0.104-0.433-0.089-0.646c0.045-0.45,0.448-0.661,0.844-0.438
			c0.506,0.285,0.806,0.734,0.791,1.314c-0.03,1.225-0.576,2.043-1.666,2.59c-0.237,0.116-0.521,0.165-0.792,0.203
			c-1.184,0.153-2.362,0.139-3.537-0.057C234.423,29.434,234.341,29.403,234.275,29.386z M240.086,26.296
			c-0.134-0.229-0.237-0.314-0.438-0.393c-0.316-0.126-0.476-0.035-0.553,0.337C239.417,26.403,239.758,26.237,240.086,26.296z
			 M200.999,24.731c-0.335-0.416-0.583-0.835-0.469-1.386c0.33,0.328,0.637,0.631,0.962,0.952c0.457-0.351,0.861-0.677,1.092-1.225
			c0.228,0.734-0.28,1.094-0.681,1.515c0.371,0.369,0.825,0.659,0.953,1.163c0.11,0.429,0.104,0.89,0.156,1.424
			c-0.518-0.271-0.953-0.152-1.389,0.028c-0.067,0.025-0.141,0.046-0.211,0.057c-0.39,0.072-0.607-0.04-0.761-0.403
			c-0.272-0.645-0.188-1.27,0.159-1.859C200.86,24.912,200.921,24.837,200.999,24.731z M201.346,25.041
			c-0.303,0.232-0.531,0.464-0.602,0.806c-0.077,0.352,0.177,0.672,0.531,0.661c0.134-0.002,0.264-0.044,0.396-0.08
			c0.313-0.078,0.624-0.159,0.98-0.258C202.363,25.649,201.784,25.442,201.346,25.041z M210.609,29.61
			c-0.004,0.219,0.016,0.436,0.143,0.624c0.14,0.196,0.292,0.382,0.467,0.614c0.176-0.27,0.326-0.502,0.498-0.768
			c0.156,0.17,0.311,0.339,0.492,0.537c0.16-0.298,0.332-0.581,0.464-0.882c0.116-0.269,0.079-0.541-0.103-0.78
			c-0.071-0.096-0.143-0.19-0.221-0.277c-0.215-0.23-0.454-0.45-0.498-0.801c-0.199,0.305-0.245,0.616-0.094,0.929
			c0.069,0.139,0.18,0.256,0.28,0.372c0.109,0.125,0.237,0.233,0.34,0.363c0.087,0.105,0.16,0.227,0.101,0.302
			c-0.186-0.149-0.374-0.288-0.551-0.442c-0.345-0.292-0.516-0.66-0.444-1.121c0.003-0.01-0.018-0.024-0.037-0.055
			c-0.234,0.445-0.331,0.883-0.112,1.354c0.056,0.122,0.124,0.243,0.173,0.371c0.021,0.049-0.003,0.116-0.006,0.198
			c-0.545-0.427-0.642-0.947-0.374-1.803C210.789,28.698,210.625,29.123,210.609,29.61z M211.702,17.161
			c0.039,0.031,0.089,0.058,0.125,0.099c0.118,0.129,0.233,0.265,0.36,0.413c0.125-0.206,0.264-0.396,0.371-0.601
			c0.27-0.511,0.23-0.822-0.148-1.264c-0.114-0.13-0.249-0.251-0.35-0.396c-0.091-0.136-0.149-0.302-0.226-0.457
			c-0.253,0.423-0.216,0.844,0.104,1.188c0.14,0.151,0.295,0.284,0.429,0.445c0.088,0.106,0.18,0.236,0.118,0.304
			c-0.216-0.173-0.439-0.332-0.646-0.516c-0.272-0.243-0.399-0.55-0.363-0.922c0.005-0.045-0.005-0.094-0.015-0.202
			c-0.284,0.54-0.348,1.024-0.069,1.514c0.045,0.076,0.087,0.156,0.111,0.239c0.015,0.054-0.002,0.118-0.01,0.239
			c-0.577-0.557-0.652-1.147-0.376-1.816c-0.306,0.301-0.437,0.669-0.502,1.075c-0.1,0.574,0.226,0.964,0.61,1.399
			C211.391,17.644,211.54,17.411,211.702,17.161z M234.96,49.736c-0.488,0.011-0.871,0.421-0.855,0.913
			c0.016,0.479,0.401,0.85,0.889,0.847c0.496-0.005,0.877-0.395,0.868-0.896C235.854,50.104,235.463,49.728,234.96,49.736z
			 M203.493,14.153c-0.486,0.003-0.879,0.404-0.87,0.898c0.006,0.482,0.384,0.856,0.868,0.863c0.499,0.007,0.893-0.381,0.893-0.875
			C204.384,14.55,203.984,14.145,203.493,14.153z M216.273,41.489c-0.006-0.474-0.392-0.866-0.863-0.866
			c-0.487,0-0.893,0.404-0.893,0.889c0.002,0.494,0.397,0.884,0.893,0.881C215.91,42.388,216.283,41.994,216.273,41.489z
			 M213.315,39.383c-0.015,0.488,0.341,0.886,0.813,0.915c0.494,0.031,0.921-0.339,0.947-0.823c0.037-0.487-0.346-0.912-0.834-0.937
			C213.738,38.516,213.334,38.885,213.315,39.383z M214.218,25.25c-0.011-0.472-0.408-0.867-0.875-0.872
			c-0.481-0.005-0.896,0.4-0.898,0.881c-0.006,0.488,0.398,0.891,0.895,0.884C213.83,26.14,214.231,25.732,214.218,25.25z
			 M212.966,40.623c-0.481,0.015-0.88,0.434-0.868,0.919c0.014,0.464,0.418,0.855,0.883,0.854c0.497-0.003,0.887-0.397,0.881-0.896
			C213.858,41.009,213.449,40.611,212.966,40.623z M201.32,14.153c-0.488,0-0.89,0.408-0.887,0.892
			c0.006,0.479,0.387,0.86,0.867,0.869c0.507,0.008,0.894-0.367,0.896-0.87C202.2,14.549,201.808,14.148,201.32,14.153z
			 M229.425,50.771c-0.49,0-0.889,0.397-0.886,0.884c0,0.48,0.376,0.863,0.855,0.875c0.51,0.013,0.898-0.362,0.901-0.862
			S229.919,50.771,229.425,50.771z M211.8,25.255c-0.005-0.469-0.401-0.865-0.867-0.876c-0.484-0.011-0.889,0.384-0.896,0.876
			c-0.006,0.499,0.38,0.889,0.88,0.889C211.407,26.144,211.807,25.746,211.8,25.255z"/>
		<g>
			<path fill="#4C4C4D" d="M16.513,21.6c0,0.481,0.377,0.858,0.858,0.858c0.479,0,0.841-0.369,0.841-0.858
				c0-0.479-0.362-0.842-0.841-0.842C16.882,20.758,16.513,21.121,16.513,21.6z"/>
			<path fill="#4C4C4D" d="M14.136,21.6c0,0.498,0.354,0.858,0.842,0.858c0.489,0,0.858-0.369,0.858-0.858
				c0-0.488-0.361-0.842-0.858-0.842C14.483,20.758,14.136,21.104,14.136,21.6z"/>
			<path fill="#4C4C4D" d="M44.103,32.371c-0.489,0-0.857,0.362-0.857,0.841c0,0.482,0.377,0.859,0.857,0.859
				s0.842-0.369,0.842-0.859C44.945,32.732,44.583,32.371,44.103,32.371z"/>
			<path fill="#4C4C4D" d="M41.711,32.371c-0.497,0-0.843,0.346-0.843,0.841c0,0.498,0.354,0.859,0.843,0.859
				s0.857-0.369,0.857-0.859C42.568,32.725,42.208,32.371,41.711,32.371z"/>
			<path fill="#4C4C4D" d="M12.255,14.441l0.641,1.227h25.84c1.013,0,1.779-0.358,2.169-1.011c0.575,0.717,1.219,1.011,2.201,1.011
				c0.95,0,1.876-0.508,2.215-1.198c0.427,0.741,1.243,1.198,2.156,1.198c1.503,0,2.437-0.836,2.437-2.182V8.71l-2.631,0.502
				l0.4,0.13c0.611,0.199,0.611,0.262,0.611,0.615v3.529c0,0.912-0.333,1.003-1.152,1.003c-1.011,0-1.615-1.004-1.615-1.975v-3.23
				l-2.654,0.5l0.39,0.132c0.645,0.22,0.645,0.25,0.645,0.536v3.035c0,0.96-0.379,1.003-1.168,1.003
				c-0.958,0-1.486-0.835-1.583-1.657V9.875l-2.649,0.482l0.401,0.133c0.644,0.215,0.644,0.241,0.644,0.552v2.396
				c0,0.912-0.329,1.003-1.136,1.003H19.664c-0.009-4.097-1.063-6.089-3.222-6.089c-1.167,0-1.891,0.524-2.498,1.091l-0.022,0.021
				l0.295,1.587l0.147-0.217c0.559-1.206,1.341-1.754,1.832-1.754c1.121,0,1.688,1.552,1.688,4.611v0.751H12.255z"/>
			<path fill="#4C4C4D" d="M145.57,7.176c0.488,0,0.856-0.369,0.856-0.858c0-0.488-0.36-0.842-0.856-0.842
				c-0.497,0-0.844,0.346-0.844,0.842C144.727,6.815,145.082,7.176,145.57,7.176z"/>
			<path fill="#4C4C4D" d="M64.347,10.822v2.233c0,1.355,0.437,2.687,1.197,3.654c0.876,1.114,2.11,1.702,3.568,1.702
				c2.33,0,3.923-1.391,4.613-4.025c0.386,0.642,1.21,1.282,2.086,1.282h1.181c1.493,0,2.42-0.836,2.42-2.182V8.71L76.76,9.212
				l0.407,0.13c0.643,0.205,0.643,0.275,0.643,0.615v3.481c0,0.939-0.374,0.99-1.088,1.003h-1.229c-1.016,0-1.587-0.989-1.609-1.917
				V8.71l-2.956,0.129l0.22,0.096c0.306,0.134,1.102,0.561,1.103,0.93c0.005,0.061,0.008,2.276,0.008,3.189
				c0,1.717-0.409,4.598-3.146,4.598c-2.737,0-3.146-2.88-3.146-4.598v-3.51l-3.001,0.131l0.27,0.096
				C63.247,9.776,64.347,10.173,64.347,10.822z"/>
			<path fill="#4C4C4D" d="M68.943,8.817c0.489,0,0.858-0.369,0.858-0.858c0-0.488-0.361-0.842-0.858-0.842
				c-0.496,0-0.842,0.346-0.842,0.842C68.101,8.457,68.456,8.817,68.943,8.817z"/>
			<path fill="#4C4C4D" d="M147.962,7.176c0.479,0,0.842-0.369,0.842-0.858c0-0.48-0.362-0.842-0.842-0.842
				c-0.489,0-0.858,0.362-0.858,0.842C147.104,6.799,147.48,7.176,147.962,7.176z"/>
			<path fill="#4C4C4D" d="M44.766,6.22c0.453,0,0.793-0.342,0.793-0.794c0-0.453-0.341-0.795-0.793-0.795
				c-0.46,0-0.794,0.334-0.794,0.795C43.971,5.887,44.305,6.22,44.766,6.22z"/>
			<path fill="#4C4C4D" d="M43.585,8.006c0.489,0,0.858-0.369,0.858-0.858c0-0.488-0.361-0.842-0.858-0.842
				c-0.496,0-0.842,0.346-0.842,0.842C42.743,7.646,43.097,8.006,43.585,8.006z"/>
			<path fill="#4C4C4D" d="M53.624,18.263l-0.605,0.162l0.624,0.05c0.529,0.042,0.918,0.064,1.157,0.064
				c3.647,0,3.953-3.159,3.953-6.121V8.71l-2.671,0.502l0.408,0.13c0.643,0.205,0.643,0.275,0.643,0.615v3.652
				C57,16.734,55.691,17.707,53.624,18.263z"/>
			<path fill="#4C4C4D" d="M45.12,7.148c0,0.481,0.376,0.858,0.857,0.858c0.48,0,0.842-0.369,0.842-0.858
				c0-0.48-0.362-0.842-0.842-0.842C45.489,6.307,45.12,6.668,45.12,7.148z"/>
			<path fill="#4C4C4D" d="M52.623,5.997v9.671h1.62V4.766l-2.626,0.501l0.394,0.131C52.623,5.602,52.623,5.67,52.623,5.997z"/>
			<path fill="#4C4C4D" d="M150.819,29.817c0.584-0.688,0.919-1.632,0.919-2.59c0-1.838-1.217-3.792-3.473-3.792
				c-2.258,0-3.475,1.954-3.475,3.792c0,1.823,1.217,3.762,3.475,3.762C149.556,30.989,150.366,30.352,150.819,29.817z
				 M148.266,24.209c1.161,0,1.725,0.987,1.725,3.018c0,1.993-0.58,3.002-1.725,3.002c-1.156,0-1.743-1.01-1.743-3.002
				C146.522,25.196,147.093,24.209,148.266,24.209z"/>
			<path fill="#4C4C4D" d="M157.83,20.718c0.611,0.204,0.611,0.271,0.611,0.599v9.671h1.621V20.086l-2.627,0.502L157.83,20.718z"/>
			<path fill="#4C4C4D" d="M153.683,24.663c0.644,0.205,0.644,0.275,0.644,0.615v3.652c-0.134,3.125-1.442,4.097-3.51,4.653
				l-0.603,0.161l0.623,0.051c0.531,0.042,0.92,0.064,1.156,0.064c3.646,0,3.952-3.16,3.952-6.122v-3.707l-2.672,0.501
				L153.683,24.663z"/>
			<path fill="#4C4C4D" d="M146.256,21.327c0,0.498,0.354,0.858,0.843,0.858s0.857-0.369,0.857-0.858
				c0-0.487-0.361-0.842-0.857-0.842S146.256,20.832,146.256,21.327z"/>
			<path fill="#4C4C4D" d="M165.974,23.674c-1.168,0-1.891,0.524-2.498,1.09l-0.021,0.021l0.295,1.586l0.148-0.215
				c0.558-1.206,1.34-1.754,1.831-1.754c1.121,0,1.689,1.551,1.689,4.61v0.751h-5.579l0.641,1.227h6.717v-0.751
				C169.196,25.943,168.082,23.674,165.974,23.674z"/>
			<path fill="#4C4C4D" d="M182.826,20.719c0.627,0.199,0.627,0.259,0.627,0.598v7.441c0,0.913-0.333,1.003-1.152,1.003h-0.67
				c-1.047,0-1.694-1.001-1.694-1.928v-7.78l-2.612,0.499l0.379,0.133c0.629,0.221,0.629,0.263,0.629,0.536v7.585
				c0,0.916-0.333,0.955-1.088,0.955h-2.126v-7.368l-2.629,0.499l0.38,0.134c0.63,0.219,0.63,0.303,0.63,0.615v6.121h-2.579
				l-0.494,1.227h7.105c1.174,0,1.994-0.392,2.381-1.135c0.536,0.733,1.233,1.135,1.975,1.135h0.749
				c1.503,0,2.437-0.836,2.437-2.182v-8.721l-2.654,0.504L182.826,20.719z"/>
			<path fill="#4C4C4D" d="M75.522,24.774c-2.299,0.017-2.864,1.444-3.246,2.902c-0.364,1.297-0.711,2.085-2.464,2.085H49.462
				c-1.05,0-1.678-0.98-1.678-1.928v-3.802l-2.63,0.497l0.38,0.134c0.629,0.221,0.629,0.262,0.629,0.536v3.609
				c0,0.916-0.333,0.955-1.088,0.955l-25.194,0l-0.058-0.005c-0.476-0.04-0.672-0.056-0.672-0.744v-5.446l-1.089,0.655
				c-0.047-0.031-0.118-0.077-0.213-0.138c-0.374-0.243-0.998-0.649-1.932-0.649c-2.114,0-3.378,1.904-3.378,3.745
				c0,2.1,1.365,3.809,3.043,3.809c1.318,0,1.98-0.877,2.234-1.333c0.181,1.2,1.151,1.319,2.057,1.333h25.49
				c0.825,0,1.896-0.2,2.38-1.135c0.536,0.733,1.234,1.135,1.974,1.135h20.989c0.741,0,1.339-0.208,1.78-0.62
				c0.466,0.536,1.172,1.305,2.639,1.305c2.291,0,3.489-1.699,3.489-3.378c0-0.799-0.292-1.667-0.783-2.322
				C77.42,25.427,76.686,24.774,75.522,24.774z M73.583,28.212c0.038-0.133,0.074-0.265,0.115-0.399
				c0.291-1.136,0.592-2.311,1.554-2.311h0.059c1.119,0.046,1.619,1.477,1.619,2.875c0,1.368-0.805,2.524-1.758,2.524
				c-0.943,0-1.587-0.743-1.971-1.186l-0.103-0.137c0.228-0.452,0.355-0.906,0.479-1.346L73.583,28.212z M15.917,24.209
				c0.822,0,1.663,0.328,1.663,2.763c0,0.822-0.029,1.425-0.171,1.898c-0.246,0.813-0.896,1.359-1.619,1.359
				c-0.588,0-1.583-0.622-1.583-2.954C14.207,25.012,15.128,24.209,15.917,24.209z"/>
			<path fill="#4C4C4D" d="M168.386,17.043c-0.489,0-0.858,0.362-0.858,0.842c0,0.48,0.377,0.857,0.858,0.857
				c0.479,0,0.841-0.368,0.841-0.857C169.227,17.406,168.865,17.043,168.386,17.043z"/>
			<path fill="#4C4C4D" d="M132.185,20.703c0.642,0.204,0.642,0.272,0.642,0.598v7.457c0,0.913-0.314,1.003-1.088,1.003h-2.856
				c-0.042-1.5-0.458-3.268-1.172-4.296c-0.782-1.128-1.843-1.724-3.065-1.724c-1.641,0-2.409,0.883-2.994,1.835
				c-0.226,0.348-0.373,0.466-0.599,0.586l-0.096,0.052l0.83,1.519l0.074-0.248c0.334-1.109,1.133-2.969,2.736-2.969
				c1.105,0,2.417,1.654,2.49,5.245h-9.931v-2.244c0-1.483-1.3-2.893-2.996-3.285c1.52-0.532,3.52-1.635,3.601-2.479l0.004-0.041
				l-1.267-1.72l-0.021,0.292c-0.122,1.622-3.091,3.744-4.119,3.744h-0.441l-0.509,0.774h1.668c1.87,0,2.364,1.808,2.364,2.764
				v2.196H86.319v-5.537h-1.32c-3.118,0-4.766,1.633-4.766,3.881c0,1.59,1.249,2.883,2.784,2.883h1.598
				c-0.572,1.764-1.95,2.293-3.224,2.576l-1.238,0.206l0.865,0.072c0.59,0.049,1.095,0.081,1.317,0.081
				c1.988,0,3.319-1.015,3.85-2.935h45.825c1.494,0,2.421-0.836,2.421-2.182V20.07l-2.653,0.502L132.185,20.703z M84.632,24.936
				h0.067v4.439c0,0.066,0.002,0.123,0.004,0.176c0.002,0.074,0.004,0.139,0,0.205l-1.571,0.005c-0.851,0-1.295-0.881-1.295-1.752
				C81.837,26.303,83.277,24.936,84.632,24.936z"/>
			<path fill="#4C4C4D" d="M136.671,20.718c0.611,0.204,0.611,0.271,0.611,0.599v9.671h1.62V20.086l-2.627,0.502L136.671,20.718z"/>
			<path fill="#4C4C4D" d="M77.413,17.056c-0.489,0-0.858,0.362-0.858,0.842c0,0.48,0.377,0.857,0.858,0.857
				c0.48,0,0.842-0.368,0.842-0.857C78.254,17.418,77.893,17.056,77.413,17.056z"/>
			<path fill="#4C4C4D" d="M165.15,17.886c0,0.497,0.354,0.857,0.842,0.857c0.489,0,0.858-0.368,0.858-0.857
				c0-0.488-0.36-0.842-0.858-0.842C165.497,17.043,165.15,17.39,165.15,17.886z"/>
			<path fill="#4C4C4D" d="M134.98,9.455c-2.299,0.015-2.864,1.442-3.246,2.901c-0.364,1.297-0.711,2.085-2.464,2.085h-3.114
				c-0.042-1.5-0.458-3.268-1.171-4.296c-0.783-1.127-1.843-1.724-3.065-1.724c-1.641,0-2.409,0.883-2.993,1.835
				c-0.227,0.348-0.374,0.466-0.6,0.585l-0.096,0.052l0.831,1.519l0.075-0.249c0.333-1.109,1.133-2.969,2.735-2.969
				c1.649,0,2.436,2.813,2.49,5.246h-9.376c-0.738,0-1.208-0.295-1.436-0.901c0.029-0.173,0.044-0.363,0.044-0.565
				c0-1.476-1.068-3.521-3.075-3.521c-2.449,0-2.847,1.541-3.231,3.031c-0.211,0.81-0.482,1.332-0.905,1.74
				c-0.157,0.131-0.387,0.18-0.527,0.209l-14.623,0.005c-0.01-4.097-1.064-6.089-3.222-6.089c-1.168,0-1.891,0.524-2.499,1.091
				L85.49,9.464l0.294,1.587l0.148-0.217c0.558-1.206,1.341-1.754,1.832-1.754c1.121,0,1.689,1.552,1.689,4.611v0.751h-5.578
				l0.64,1.227h21.313c0.729,0,1.232-0.185,1.667-0.615c0.554,0.682,1.261,1.3,2.607,1.3c1.351,0,2.446-0.605,3.019-1.665
				c0.582,0.694,1.22,0.979,2.181,0.979h14.859c0.74,0,1.339-0.208,1.78-0.618c0.428,0.508,1.141,1.304,2.639,1.304
				c2.28,0,3.474-1.699,3.474-3.378c0-0.802-0.29-1.67-0.774-2.321C136.874,10.107,136.145,9.455,134.98,9.455z M133.058,12.798
				c0.026-0.102,0.054-0.204,0.082-0.305c0.319-1.189,0.622-2.312,1.57-2.312h0.059c1.118,0.045,1.619,1.476,1.619,2.874
				c0,1.368-0.805,2.524-1.758,2.524c-0.945,0-1.588-0.745-1.972-1.186l-0.102-0.137c0.244-0.485,0.372-0.971,0.496-1.441
				L133.058,12.798z M108.615,12.706l0.029-0.111l0.034-0.104c0.292-1.135,0.593-2.309,1.554-2.309h0.06
				c1.118,0.044,1.619,1.475,1.619,2.874c0,1.368-0.805,2.524-1.758,2.524c-0.991,0-1.718-0.891-2.024-1.264
				c-0.005-0.01-0.021-0.04-0.044-0.071C108.347,13.724,108.482,13.207,108.615,12.706z"/>
			<path fill="#4C4C4D" d="M149.49,20.485c-0.489,0-0.857,0.362-0.857,0.842c0,0.481,0.377,0.858,0.857,0.858
				s0.842-0.369,0.842-0.858C150.332,20.847,149.971,20.485,149.49,20.485z"/>
			<path fill="#4C4C4D" d="M146.163,15.668c1.317,0,1.979-0.877,2.234-1.333c0.181,1.201,1.151,1.319,2.056,1.333h19.149
				c0.825,0,1.895-0.2,2.38-1.135c0.535,0.732,1.234,1.135,1.974,1.135h1.531c1.175,0,1.995-0.392,2.381-1.135
				c0.536,0.732,1.24,1.135,1.99,1.135h5.879l-0.517-1.227h-0.148v-2.244c0-1.484-1.3-2.893-2.995-3.285
				c1.52-0.531,3.521-1.635,3.601-2.48l0.004-0.041l-1.267-1.719l-0.021,0.291c-0.121,1.621-3.09,3.744-4.118,3.744h-0.441
				l-0.51,0.774h1.668c0.773,0,1.405,0.327,1.83,0.946c0.335,0.49,0.535,1.169,0.535,1.818v2.196h-3.771
				c-1.046,0-1.693-1.001-1.693-1.927v-7.78l-2.614,0.499l0.38,0.133c0.63,0.221,0.63,0.263,0.63,0.536v7.585
				c0,0.917-0.334,0.956-1.088,0.956h-1.5c-1.051,0-1.678-0.98-1.678-1.927V8.71l-2.631,0.497l0.381,0.134
				c0.63,0.221,0.63,0.263,0.63,0.536v3.609c0,0.917-0.334,0.956-1.089,0.956h-18.852l-0.059-0.005
				c-0.476-0.039-0.672-0.055-0.672-0.743V8.247l-1.089,0.654c-0.047-0.03-0.118-0.076-0.21-0.135
				c-0.374-0.244-0.999-0.651-1.936-0.651c-2.115,0-3.379,1.904-3.379,3.745C143.119,13.959,144.485,15.668,146.163,15.668z
				 M146.498,8.889c0.821,0,1.662,0.328,1.662,2.763c0,0.821-0.028,1.424-0.171,1.898c-0.245,0.813-0.896,1.358-1.618,1.358
				c-1.25,0-1.583-1.857-1.583-2.954C144.788,10.541,145.235,8.889,146.498,8.889z"/>
			<path fill="#4C4C4D" d="M174.283,34.456h0.755v0.552h-2.87l0.196-0.552h0.616c-0.328-0.276-0.522-0.729-0.522-1.099
				c0-0.761,0.552-1.23,1.313-1.23c0.593,0,1.058,0.387,1.058,0.881c0,0.321-0.179,0.483-0.531,0.483
				c-0.256,0-0.516-0.138-0.516-0.403c0-0.138,0.078-0.276,0.201-0.365c-0.061-0.064-0.161-0.093-0.244-0.093
				c-0.255,0-0.394,0.335-0.394,0.65C173.345,33.784,173.66,34.456,174.283,34.456z"/>
		</g>
		<g>
			<path fill="#4C4C4D" d="M12.819,48.626l0.869-7.086c0.029-0.156,0.043-0.427,0.043-0.556c0-0.328-0.085-0.499-0.399-0.77h1.925
				l2.908,6.572l2.852-6.572h1.896c-0.328,0.271-0.399,0.427-0.399,0.812c0,0.129,0,0.214,0.028,0.429l0.941,7.043
				c0.057,0.485,0.085,0.599,0.186,0.771c0.071,0.143,0.157,0.242,0.371,0.456h-2.295c0.271-0.214,0.356-0.428,0.356-0.841
				c0-0.144,0-0.313-0.015-0.429l-0.798-6.074l-3.265,7.515l-3.308-7.515l-0.784,6.332c-0.014,0.07-0.014,0.185-0.014,0.271
				c0,0.313,0.057,0.441,0.356,0.741h-2.01C12.619,49.496,12.748,49.239,12.819,48.626z"/>
			<path fill="#4C4C4D" d="M30.405,40.058c2.937,0,5.118,2.081,5.118,4.891c0,2.809-2.21,4.947-5.104,4.947
				c-2.895,0-5.033-2.067-5.033-4.848C25.386,42.153,27.482,40.058,30.405,40.058z M30.448,48.854c2.096,0,3.565-1.611,3.565-3.906
				c0-2.252-1.483-3.821-3.636-3.821c-2.11,0-3.507,1.554-3.507,3.936C26.869,47.286,28.352,48.854,30.448,48.854z"/>
			<path fill="#4C4C4D" d="M37.781,48.642v-7.329c0-0.6-0.114-0.855-0.499-1.098h2.41c-0.371,0.242-0.499,0.498-0.499,1.098v2.737
				h4.292v-2.737c0-0.6-0.114-0.855-0.499-1.098h2.41c-0.371,0.242-0.5,0.498-0.5,1.098v7.329c0,0.584,0.129,0.854,0.5,1.083h-2.41
				c0.385-0.229,0.499-0.499,0.499-1.083v-3.537h-4.292v3.537c0,0.584,0.128,0.854,0.499,1.083h-2.41
				C37.667,49.496,37.781,49.226,37.781,48.642z"/>
			<path fill="#4C4C4D" d="M47.409,49.025l3.265-7.699c0.114-0.284,0.186-0.514,0.186-0.67s-0.071-0.285-0.228-0.441H52.3
				l3.564,8.397c0.114,0.271,0.185,0.399,0.285,0.556c0.143,0.215,0.228,0.3,0.542,0.557h-2.453c0.2-0.2,0.271-0.313,0.271-0.499
				c0-0.129-0.057-0.314-0.157-0.557l-1.069-2.58h-3.379l-1.127,2.724c-0.071,0.171-0.1,0.327-0.1,0.456
				c0,0.171,0.057,0.285,0.256,0.456H46.81C47.138,49.496,47.267,49.34,47.409,49.025z M52.842,45.033l-1.241-3.037l-1.255,3.037
				H52.842z"/>
			<path fill="#4C4C4D" d="M58.421,48.626l0.87-7.086c0.029-0.156,0.043-0.427,0.043-0.556c0-0.328-0.085-0.499-0.399-0.77h1.924
				l2.909,6.572l2.852-6.572h1.896c-0.328,0.271-0.399,0.427-0.399,0.812c0,0.129,0,0.214,0.029,0.429l0.94,7.043
				c0.058,0.485,0.086,0.599,0.186,0.771c0.071,0.143,0.157,0.242,0.371,0.456h-2.295c0.271-0.214,0.356-0.428,0.356-0.841
				c0-0.144,0-0.313-0.014-0.429l-0.798-6.074l-3.265,7.515l-3.308-7.515l-0.785,6.332c-0.014,0.07-0.014,0.185-0.014,0.271
				c0,0.313,0.058,0.441,0.356,0.741h-2.01C58.222,49.496,58.35,49.239,58.421,48.626z"/>
			<path fill="#4C4C4D" d="M71.567,48.626l0.869-7.086c0.029-0.156,0.043-0.427,0.043-0.556c0-0.328-0.086-0.499-0.399-0.77h1.925
				l2.908,6.572l2.852-6.572h1.896c-0.328,0.271-0.399,0.427-0.399,0.812c0,0.129,0,0.214,0.028,0.429l0.941,7.043
				c0.057,0.485,0.085,0.599,0.186,0.771c0.071,0.143,0.157,0.242,0.371,0.456h-2.295c0.271-0.214,0.356-0.428,0.356-0.841
				c0-0.144,0-0.313-0.015-0.429l-0.798-6.074l-3.265,7.515l-3.308-7.515l-0.784,6.332c-0.014,0.07-0.014,0.185-0.014,0.271
				c0,0.313,0.057,0.441,0.356,0.741h-2.01C71.367,49.496,71.496,49.239,71.567,48.626z"/>
			<path fill="#4C4C4D" d="M89.016,48.655c1.126,0,1.483-0.085,2.054-0.514l0.085-0.071l-0.442,1.654h-6.33
				c0.385-0.229,0.499-0.499,0.499-1.083v-7.329c0-0.6-0.114-0.855-0.499-1.098h6.002l0.171,1.482l-0.057-0.043
				c-0.442-0.313-0.656-0.37-1.34-0.37h-2.866v2.637h2.88c0.499,0,0.57,0,0.741-0.084l0.071,1.481
				c-0.199-0.171-0.285-0.214-0.427-0.256c-0.143-0.058-0.385-0.071-0.827-0.071h-2.438v3.664H89.016z"/>
			<path fill="#4C4C4D" d="M93.075,48.642v-7.329c0-0.6-0.114-0.855-0.499-1.098h3.65c1.141,0,1.996,0.185,2.752,0.598
				c1.454,0.771,2.353,2.368,2.353,4.149c0,1.084-0.356,2.182-0.956,2.966c-0.313,0.414-0.713,0.785-1.169,1.069
				c-0.855,0.514-1.725,0.728-2.98,0.728h-3.65C92.96,49.496,93.075,49.226,93.075,48.642z M96.497,48.655
				c2.068,0,3.308-1.384,3.308-3.679c0-2.31-1.24-3.692-3.308-3.692h-2.01v7.371H96.497z"/>
			<path fill="#4C4C4D" d="M107.533,48.642v-7.329c0-0.6-0.114-0.855-0.499-1.098h3.635c1.868,0,3.008,0.884,3.008,2.323
				c0,0.542-0.199,1.027-0.542,1.37c-0.142,0.127-0.257,0.213-0.642,0.455c0.57,0.214,0.771,0.313,1.084,0.599
				c0.484,0.429,0.755,1.099,0.755,1.868c0,0.913-0.371,1.696-1.041,2.21c-0.656,0.499-1.425,0.685-2.894,0.685h-3.365
				C107.419,49.496,107.533,49.226,107.533,48.642z M109.9,43.921c0.955,0,1.254-0.028,1.64-0.199
				c0.414-0.185,0.642-0.585,0.642-1.112c0-0.869-0.599-1.325-1.769-1.325h-1.468v2.637H109.9z M110.057,48.655
				c0.727,0,1.126-0.014,1.469-0.101c0.813-0.171,1.312-0.826,1.312-1.696c0-0.599-0.228-1.083-0.685-1.425
				c-0.428-0.314-0.955-0.442-1.896-0.442h-1.312v3.664H110.057z"/>
			<path fill="#4C4C4D" d="M116.522,48.642v-7.329c0-0.6-0.114-0.855-0.499-1.098h2.41c-0.371,0.242-0.499,0.498-0.499,1.098v7.329
				c0,0.584,0.128,0.854,0.499,1.083h-2.41C116.408,49.496,116.522,49.226,116.522,48.642z"/>
			<path fill="#4C4C4D" d="M120.799,48.642v-7.258c0-0.6-0.142-0.927-0.499-1.169h1.697l5.36,6.344v-5.246
				c0-0.6-0.114-0.855-0.499-1.098h2.125c-0.371,0.242-0.499,0.498-0.499,1.098v8.583l-6.559-7.742v6.488
				c0,0.584,0.127,0.854,0.499,1.083H120.3C120.686,49.496,120.799,49.226,120.799,48.642z"/>
			<path fill="#4C4C4D" d="M135.144,48.642v-7.329c0-0.6-0.113-0.855-0.498-1.098h2.309c0.172,0,0.442,0.014,0.813,0.014
				c0.983,0.015,1.325,0.042,1.81,0.186c0.942,0.285,1.555,1.126,1.555,2.153c0,1.196-0.713,1.967-2.081,2.253
				c0.185,0.128,0.256,0.171,0.371,0.284c0.085,0.071,0.171,0.171,0.298,0.313c0.087,0.115,0.172,0.215,0.243,0.314
				c0.014,0.028,0.072,0.1,0.171,0.242l1.868,2.552l0.17,0.229c0.215,0.3,0.343,0.442,0.529,0.57
				c0.171,0.143,0.271,0.199,0.74,0.399h-2.338l-2.48-3.479c-0.357-0.499-0.656-0.812-0.97-0.998
				c-0.313-0.171-0.527-0.228-1.098-0.242v3.637c0,0.584,0.129,0.854,0.498,1.083h-2.408
				C135.03,49.496,135.144,49.226,135.144,48.642z M137.312,44.035c0.47,0,0.77-0.028,1.055-0.085
				c0.713-0.129,1.184-0.671,1.184-1.369c0-0.414-0.171-0.77-0.457-0.97c-0.342-0.256-0.812-0.342-1.753-0.342
				c-0.2,0-0.371,0-0.784,0.015v2.723C136.927,44.035,137.083,44.035,137.312,44.035z"/>
			<path fill="#4C4C4D" d="M145.058,49.025l3.264-7.699c0.114-0.284,0.186-0.514,0.186-0.67s-0.071-0.285-0.228-0.441h1.668
				l3.564,8.397c0.114,0.271,0.186,0.399,0.285,0.556c0.143,0.215,0.228,0.3,0.542,0.557h-2.453c0.2-0.2,0.271-0.313,0.271-0.499
				c0-0.129-0.056-0.314-0.155-0.557l-1.069-2.58h-3.38l-1.127,2.724c-0.071,0.171-0.1,0.327-0.1,0.456
				c0,0.171,0.057,0.285,0.258,0.456h-2.126C144.786,49.496,144.915,49.34,145.058,49.025z M150.489,45.033l-1.241-3.037
				l-1.254,3.037H150.489z"/>
			<path fill="#4C4C4D" d="M155.542,47.743c0.969,0.755,1.853,1.069,3.008,1.069c1.412,0,2.339-0.671,2.339-1.712
				c0-0.471-0.215-0.897-0.585-1.141c-0.199-0.143-0.457-0.271-0.784-0.385c-0.271-0.1-0.585-0.213-0.913-0.328
				c-0.955-0.356-1.311-0.513-1.753-0.784c-0.714-0.441-1.056-0.997-1.056-1.767c0-1.684,1.312-2.653,3.622-2.653
				c0.556,0,0.998,0.043,1.768,0.172l0.229,0.043l0.213,1.653c-0.427-0.271-0.598-0.371-0.869-0.484
				c-0.5-0.2-1.055-0.328-1.597-0.328c-1.155,0-1.896,0.513-1.896,1.312c0,0.286,0.114,0.57,0.285,0.756
				c0.313,0.313,0.728,0.513,1.91,0.927c1.312,0.456,1.654,0.613,2.11,1.012c0.499,0.413,0.784,1.084,0.784,1.812
				c0,1.797-1.597,2.979-4.049,2.979c-0.742,0-1.525-0.113-2.538-0.342L155.542,47.743z"/>
			<path fill="#4C4C4D" d="M164.578,48.642v-7.329c0-0.6-0.113-0.855-0.498-1.098h2.409c-0.371,0.242-0.499,0.498-0.499,1.098v2.737
				h4.292v-2.737c0-0.6-0.115-0.855-0.499-1.098h2.409c-0.371,0.242-0.499,0.498-0.499,1.098v7.329c0,0.584,0.128,0.854,0.499,1.083
				h-2.409c0.384-0.229,0.499-0.499,0.499-1.083v-3.537h-4.292v3.537c0,0.584,0.128,0.854,0.499,1.083h-2.409
				C164.465,49.496,164.578,49.226,164.578,48.642z"/>
			<path fill="#4C4C4D" d="M174.581,48.642v-7.329c0-0.6-0.114-0.855-0.499-1.098h2.409c-0.37,0.242-0.499,0.498-0.499,1.098v7.329
				c0,0.584,0.129,0.854,0.499,1.083h-2.409C174.467,49.496,174.581,49.226,174.581,48.642z"/>
			<path fill="#4C4C4D" d="M178.858,48.642v-7.329c0-0.6-0.114-0.855-0.498-1.098h3.649c1.141,0,1.996,0.185,2.752,0.598
				c1.454,0.771,2.353,2.368,2.353,4.149c0,1.084-0.356,2.182-0.955,2.966c-0.314,0.414-0.713,0.785-1.169,1.069
				c-0.855,0.514-1.726,0.728-2.98,0.728h-3.649C178.744,49.496,178.858,49.226,178.858,48.642z M182.28,48.655
				c2.068,0,3.309-1.384,3.309-3.679c0-2.31-1.24-3.692-3.309-3.692h-2.01v7.371H182.28z"/>
			<path fill="#4C4C4D" d="M12.638,63.125c0.969,0.756,1.854,1.069,3.008,1.069c1.412,0,2.338-0.67,2.338-1.711
				c0-0.47-0.214-0.898-0.585-1.141c-0.199-0.143-0.456-0.271-0.784-0.385c-0.271-0.101-0.585-0.214-0.913-0.327
				c-0.956-0.358-1.312-0.514-1.754-0.785c-0.713-0.442-1.055-0.998-1.055-1.768c0-1.683,1.312-2.652,3.622-2.652
				c0.556,0,0.998,0.042,1.768,0.171l0.228,0.043l0.214,1.653c-0.428-0.271-0.599-0.37-0.87-0.484
				c-0.499-0.199-1.055-0.327-1.597-0.327c-1.154,0-1.896,0.513-1.896,1.312c0,0.285,0.114,0.57,0.285,0.755
				c0.313,0.314,0.727,0.514,1.911,0.927c1.312,0.457,1.653,0.613,2.11,1.014c0.5,0.413,0.784,1.083,0.784,1.81
				c0,1.797-1.597,2.979-4.049,2.979c-0.742,0-1.525-0.113-2.538-0.342L12.638,63.125z"/>
			<path fill="#4C4C4D" d="M28.16,57.151c-0.442-0.229-0.613-0.313-0.913-0.399c-0.456-0.157-0.941-0.229-1.454-0.229
				c-2.281,0-3.807,1.525-3.807,3.821c0,2.324,1.667,3.85,4.177,3.85c0.855,0,1.568-0.199,2.538-0.713l-0.399,1.597
				c-0.77,0.144-1.44,0.199-2.125,0.199c-3.45,0-5.732-1.952-5.732-4.904c0-2.951,2.295-4.947,5.689-4.947
				c0.599,0,1.055,0.042,1.839,0.186L28.16,57.151z"/>
			<path fill="#4C4C4D" d="M29.871,64.023v-7.328c0-0.599-0.114-0.856-0.499-1.099h2.41c-0.371,0.242-0.499,0.5-0.499,1.099v2.737
				h4.292v-2.737c0-0.599-0.114-0.856-0.499-1.099h2.41c-0.371,0.242-0.499,0.5-0.499,1.099v7.328c0,0.585,0.128,0.855,0.499,1.083
				h-2.41c0.385-0.228,0.499-0.498,0.499-1.083v-3.535h-4.292v3.535c0,0.585,0.128,0.855,0.499,1.083h-2.41
				C29.757,64.879,29.871,64.608,29.871,64.023z"/>
			<path fill="#4C4C4D" d="M43.592,55.44c2.937,0,5.118,2.082,5.118,4.891c0,2.808-2.21,4.946-5.104,4.946
				c-2.894,0-5.033-2.067-5.033-4.847C38.573,57.535,40.669,55.44,43.592,55.44z M43.635,64.237c2.096,0,3.564-1.61,3.564-3.906
				c0-2.253-1.482-3.822-3.636-3.822c-2.11,0-3.507,1.555-3.507,3.936C40.056,62.669,41.539,64.237,43.635,64.237z"/>
			<path fill="#4C4C4D" d="M54.845,55.44c2.937,0,5.119,2.082,5.119,4.891c0,2.808-2.21,4.946-5.104,4.946
				c-2.894,0-5.033-2.067-5.033-4.847C49.827,57.535,51.922,55.44,54.845,55.44z M54.888,64.237c2.096,0,3.564-1.61,3.564-3.906
				c0-2.253-1.482-3.822-3.635-3.822c-2.11,0-3.507,1.555-3.507,3.936C51.31,62.669,52.792,64.237,54.888,64.237z"/>
			<path fill="#4C4C4D" d="M61.509,64.023v-7.328c0-0.599-0.114-0.856-0.499-1.099h2.409c-0.37,0.242-0.499,0.5-0.499,1.099v7.342
				h2.795h0.499c0.514-0.027,0.756-0.056,1.041-0.156c0.314-0.1,0.542-0.229,0.827-0.456l-0.556,1.682H61.01
				C61.395,64.879,61.509,64.608,61.509,64.023z"/>
			<path fill="#4C4C4D" d="M76.22,55.44c2.937,0,5.119,2.082,5.119,4.891c0,2.808-2.21,4.946-5.105,4.946
				c-2.894,0-5.033-2.067-5.033-4.847C71.202,57.535,73.297,55.44,76.22,55.44z M76.263,64.237c2.096,0,3.564-1.61,3.564-3.906
				c0-2.253-1.483-3.822-3.635-3.822c-2.11,0-3.508,1.555-3.508,3.936C72.685,62.669,74.167,64.237,76.263,64.237z"/>
			<path fill="#4C4C4D" d="M82.884,64.023v-7.328c0-0.599-0.114-0.856-0.499-1.099h5.717l0.17,1.483l-0.057-0.043
				c-0.442-0.313-0.656-0.371-1.34-0.371h-2.581v2.638h2.78c0.499,0,0.584,0,0.741-0.085l0.086,1.482
				c-0.214-0.171-0.299-0.213-0.428-0.257c-0.157-0.057-0.385-0.071-0.827-0.071h-2.353v3.65c0,0.585,0.128,0.855,0.499,1.083
				h-2.409C82.77,64.879,82.884,64.608,82.884,64.023z"/>
			<path fill="#4C4C4D" d="M98.073,65.277c-1.54,0-2.652-0.355-3.607-1.125c-1.126-0.913-1.753-2.268-1.753-3.765
				c0-2.923,2.252-4.962,5.461-4.962c0.371,0,0.741,0.028,1.126,0.071c0.47,0.071,0.742,0.114,1.597,0.328l0.2,1.782
				c-1.084-0.813-1.939-1.126-2.994-1.126c-2.325,0-3.85,1.525-3.85,3.878s1.568,3.878,3.992,3.878c0.685,0,1.283-0.129,1.896-0.414
				v-2.452c0-0.599-0.114-0.855-0.499-1.099h2.409c-0.37,0.243-0.499,0.5-0.499,1.099v2.71c0,0.342,0.028,0.47,0.143,0.627
				C100.24,65.106,99.171,65.277,98.073,65.277z"/>
			<path fill="#4C4C4D" d="M108.042,55.44c2.937,0,5.118,2.082,5.118,4.891c0,2.808-2.21,4.946-5.104,4.946
				c-2.895,0-5.033-2.067-5.033-4.847C103.022,57.535,105.118,55.44,108.042,55.44z M108.083,64.237c2.096,0,3.565-1.61,3.565-3.906
				c0-2.253-1.483-3.822-3.636-3.822c-2.11,0-3.508,1.555-3.508,3.936C104.505,62.669,105.988,64.237,108.083,64.237z"/>
			<path fill="#4C4C4D" d="M114,57.122c-0.185-0.385-0.299-0.599-0.414-0.798c-0.171-0.285-0.356-0.485-0.684-0.728h2.523
				c-0.199,0.172-0.242,0.257-0.242,0.456c0,0.157,0.1,0.514,0.242,0.813l2.609,5.617l2.695-5.746
				c0.143-0.3,0.228-0.585,0.228-0.727c0-0.157-0.071-0.271-0.228-0.414h2.139c-0.342,0.257-0.442,0.356-0.57,0.542
				c-0.1,0.156-0.214,0.37-0.471,0.912l-3.963,8.227L114,57.122z"/>
			<path fill="#4C4C4D" d="M128.219,64.037c1.127,0,1.482-0.085,2.054-0.513l0.085-0.072l-0.442,1.654h-6.33
				c0.385-0.228,0.499-0.498,0.499-1.083v-7.328c0-0.599-0.114-0.856-0.499-1.099h6.002l0.172,1.483l-0.058-0.043
				c-0.442-0.313-0.655-0.371-1.34-0.371h-2.866v2.638h2.88c0.499,0,0.57,0,0.741-0.085l0.07,1.482
				c-0.199-0.171-0.284-0.213-0.427-0.257c-0.143-0.057-0.385-0.071-0.827-0.071h-2.438v3.664H128.219z"/>
			<path fill="#4C4C4D" d="M131.563,64.023v-7.328c0-0.599-0.114-0.856-0.498-1.099h2.31c0.171,0,0.442,0.015,0.813,0.015
				c0.983,0.015,1.326,0.043,1.811,0.186c0.94,0.284,1.555,1.126,1.555,2.152c0,1.198-0.713,1.968-2.082,2.253
				c0.186,0.129,0.257,0.171,0.37,0.286c0.086,0.071,0.172,0.171,0.3,0.313c0.085,0.113,0.172,0.213,0.243,0.313
				c0.014,0.028,0.07,0.1,0.17,0.242l1.868,2.553l0.172,0.228c0.214,0.299,0.342,0.441,0.526,0.57
				c0.172,0.143,0.271,0.2,0.742,0.398h-2.339l-2.48-3.479c-0.356-0.499-0.656-0.813-0.97-0.997
				c-0.313-0.172-0.527-0.229-1.099-0.243v3.636c0,0.585,0.13,0.855,0.5,1.083h-2.409C131.449,64.879,131.563,64.608,131.563,64.023
				z M133.73,59.419c0.472,0,0.771-0.029,1.057-0.087c0.712-0.128,1.182-0.669,1.182-1.368c0-0.413-0.17-0.771-0.455-0.97
				c-0.343-0.257-0.813-0.342-1.754-0.342c-0.2,0-0.371,0-0.785,0.014v2.724C133.346,59.419,133.503,59.419,133.73,59.419z"/>
			<path fill="#4C4C4D" d="M141.021,64.023v-7.257c0-0.599-0.142-0.928-0.499-1.17h1.697l5.361,6.346v-5.247
				c0-0.599-0.115-0.856-0.5-1.099h2.125c-0.371,0.242-0.499,0.5-0.499,1.099v8.582l-6.56-7.742v6.488
				c0,0.585,0.129,0.855,0.5,1.083h-2.125C140.907,64.879,141.021,64.608,141.021,64.023z"/>
			<path fill="#4C4C4D" d="M150.464,64.01l0.869-7.087c0.029-0.156,0.044-0.428,0.044-0.557c0-0.327-0.086-0.498-0.399-0.77h1.925
				l2.909,6.573l2.851-6.573h1.896c-0.327,0.271-0.398,0.428-0.398,0.813c0,0.128,0,0.213,0.027,0.428l0.941,7.043
				c0.057,0.484,0.086,0.599,0.186,0.771c0.071,0.142,0.157,0.242,0.371,0.455h-2.296c0.271-0.213,0.356-0.427,0.356-0.841
				c0-0.143,0-0.313-0.015-0.427l-0.799-6.074l-3.264,7.513l-3.309-7.513l-0.784,6.33c-0.014,0.071-0.014,0.186-0.014,0.271
				c0,0.314,0.056,0.442,0.355,0.741h-2.01C150.265,64.879,150.393,64.622,150.464,64.01z"/>
			<path fill="#4C4C4D" d="M167.2,64.037c1.127,0,1.483-0.085,2.054-0.513l0.085-0.072l-0.441,1.654h-6.33
				c0.385-0.228,0.499-0.498,0.499-1.083v-7.328c0-0.599-0.114-0.856-0.499-1.099h6.002l0.171,1.483l-0.057-0.043
				c-0.441-0.313-0.656-0.371-1.34-0.371h-2.865v2.638h2.879c0.499,0,0.57,0,0.741-0.085l0.072,1.482
				c-0.199-0.171-0.286-0.213-0.429-0.257c-0.142-0.057-0.385-0.071-0.827-0.071h-2.437v3.664H167.2z"/>
			<path fill="#4C4C4D" d="M170.547,64.023v-7.257c0-0.599-0.143-0.928-0.499-1.17h1.695l5.362,6.346v-5.247
				c0-0.599-0.115-0.856-0.499-1.099h2.125c-0.371,0.242-0.5,0.5-0.5,1.099v8.582l-6.56-7.742v6.488c0,0.585,0.13,0.855,0.5,1.083
				h-2.124C170.432,64.879,170.547,64.608,170.547,64.023z"/>
			<path fill="#4C4C4D" d="M182.597,64.023v-7.357h-1.555c-0.842,0-1.112,0.114-1.568,0.67l0.242-1.739h7.173l0.241,1.739
				c-0.241-0.299-0.356-0.398-0.541-0.498c-0.243-0.129-0.543-0.172-1.027-0.172h-1.554v7.357c0,0.585,0.128,0.855,0.499,1.083
				h-2.41C182.482,64.879,182.597,64.608,182.597,64.023z"/>
		</g>
	</g>
</g>
</svg>
